ffmpeg version 4.4.2-0ubuntu0.22.04.1 Copyright (c) 2000-2021 the FFmpeg developers
  built with gcc 11 (Ubuntu 11.2.0-19ubuntu1)
  configuration: --prefix=/usr --extra-version=0ubuntu0.22.04.1 --toolchain=hardened --libdir=/usr/lib/x86_64-linux-gnu --incdir=/usr/include/x86_64-linux-gnu --arch=amd64 --enable-gpl --disable-stripping --enable-gnutls --enable-ladspa --enable-libaom --enable-libass --enable-libbluray --enable-libbs2b --enable-libcaca --enable-libcdio --enable-libcodec2 --enable-libdav1d --enable-libflite --enable-libfontconfig --enable-libfreetype --enable-libfribidi --enable-libgme --enable-libgsm --enable-libjack --enable-libmp3lame --enable-libmysofa --enable-libopenjpeg --enable-libopenmpt --enable-libopus --enable-libpulse --enable-librabbitmq --enable-librubberband --enable-libshine --enable-libsnappy --enable-libsoxr --enable-libspeex --enable-libsrt --enable-libssh --enable-libtheora --enable-libtwolame --enable-libvidstab --enable-libvorbis --enable-libvpx --enable-libwebp --enable-libx265 --enable-libxml2 --enable-libxvid --enable-libzimg --enable-libzmq --enable-libzvbi --enable-lv2 --enable-omx --enable-openal --enable-opencl --enable-opengl --enable-sdl2 --enable-pocketsphinx --enable-librsvg --enable-libmfx --enable-libdc1394 --enable-libdrm --enable-libiec61883 --enable-chromaprint --enable-frei0r --enable-libx264 --enable-shared
  libavutil      56. 70.100 / 56. 70.100
  libavcodec     58.134.100 / 58.134.100
  libavformat    58. 76.100 / 58. 76.100
  libavdevice    58. 13.100 / 58. 13.100
  libavfilter     7.110.100 /  7.110.100
  libswscale      5.  9.100 /  5.  9.100
  libswresample   3.  9.100 /  3.  9.100
  libpostproc    55.  9.100 / 55.  9.100
Input #0, flv, from '/storage/32426326/20250722/32426326-20250722-145032-225.flv':
  Metadata:
    3.1             : false
    audiochannels   : 2
    2.1             : false
    7.1             : false
    4.1             : false
    cdn_ip          : 156.59.188.242
    displayWidth    : 2560
    fileSize        : 0
    fps             : 60
    5.1             : false
    displayHeight   : 1440
    encoder         : obs-output module (libobs version 31.0.2)
    4.0             : false
    Title           : 技术主播没有GG
    Artist          : 蓝音BuBuLine (32426326)
    Comment         : mikufans直播间 32426326 的直播录像
                    : 主播名: 蓝音BuBuLine
                    : 直播标题: 技术主播没有GG
                    : 直播分区: 单机游戏·主机游戏
                    : 录制时间: 2025-07-22T14:50:32.2533765+00:00
                    : 直播服务器:
                    : d1--ov-gotcha07.bilivideo.com [156.59.188.242]
                    : 
                    : 使用 mikufans录播姬 录制 https://rec.danmuji.org
                    : 录播姬版本: 2.17.3
    RecordedBy      : BililiveRecorder mikufans录播姬
    RecordedFrom    : d1--ov-gotcha07.bilivideo.com
    StreamServers   : d1--ov-gotcha07.bilivideo.com [156.59.188.242]
    RecorderVersion : 2.17.3+Branch.tags-v2.17.3.Sha.96407e2eba9a597dd9997c6fb731725f4294a371
    StartTime       : Tue, 22 Jul 2025 14:50:32 +0000
    RoomId          : 32426326
    ShortId         : 0
    Name            : 蓝音BuBuLine
    StreamTitle     : 技术主播没有GG
    AreaNameParent  : 单机游戏
    AreaNameChild   : 主机游戏
  Duration: 07:32:29.65, start: 0.035000, bitrate: 8815 kb/s
  Stream #0:0: Video: h264 (High), yuv420p(tv, bt709, progressive), 2560x1440 [SAR 1:1 DAR 16:9], 10240 kb/s, 60 fps, 60 tbr, 1k tbn, 120 tbc
  Stream #0:1: Audio: aac (LC), 48000 Hz, stereo, fltp, 196 kb/s
Stream mapping:
  Stream #0:0 -> #0:0 (h264 (native) -> png (native))
Press [q] to stop, [?] for help
Output #0, image2, to '/storage/32426326/20250722/32426326-20250722-145032-225.all.thumb.png':
  Metadata:
    3.1             : false
    audiochannels   : 2
    2.1             : false
    7.1             : false
    4.1             : false
    cdn_ip          : 156.59.188.242
    displayWidth    : 2560
    fileSize        : 0
    fps             : 60
    5.1             : false
    displayHeight   : 1440
    AreaNameChild   : 主机游戏
    4.0             : false
    Title           : 技术主播没有GG
    Artist          : 蓝音BuBuLine (32426326)
    Comment         : mikufans直播间 32426326 的直播录像
                    : 主播名: 蓝音BuBuLine
                    : 直播标题: 技术主播没有GG
                    : 直播分区: 单机游戏·主机游戏
                    : 录制时间: 2025-07-22T14:50:32.2533765+00:00
                    : 直播服务器:
                    : d1--ov-gotcha07.bilivideo.com [156.59.188.242]
                    : 
                    : 使用 mikufans录播姬 录制 https://rec.danmuji.org
                    : 录播姬版本: 2.17.3
    RecordedBy      : BililiveRecorder mikufans录播姬
    RecordedFrom    : d1--ov-gotcha07.bilivideo.com
    StreamServers   : d1--ov-gotcha07.bilivideo.com [156.59.188.242]
    RecorderVersion : 2.17.3+Branch.tags-v2.17.3.Sha.96407e2eba9a597dd9997c6fb731725f4294a371
    StartTime       : Tue, 22 Jul 2025 14:50:32 +0000
    RoomId          : 32426326
    ShortId         : 0
    Name            : 蓝音BuBuLine
    StreamTitle     : 技术主播没有GG
    AreaNameParent  : 单机游戏
    encoder         : Lavf58.76.100
  Stream #0:0: Video: png, rgb24(pc, gbr/bt709/bt709, progressive), 2560x1440 [SAR 1:1 DAR 16:9], q=2-31, 200 kb/s, 60 fps, 60 tbn
    Metadata:
      encoder         : Lavc58.134.100 png
frame=    1 fps=0.0 q=0.0 size=N/A time=00:00:00.00 bitrate=N/A speed=   0x    frame=    1 fps=0.0 q=-0.0 Lsize=N/A time=00:00:00.01 bitrate=N/A speed=0.05x    
video:1793kB audio:0kB subtitle:0kB other streams:0kB global headers:0kB muxing overhead: unknown
ffmpeg version 4.4.2-0ubuntu0.22.04.1 Copyright (c) 2000-2021 the FFmpeg developers
  built with gcc 11 (Ubuntu 11.2.0-19ubuntu1)
  configuration: --prefix=/usr --extra-version=0ubuntu0.22.04.1 --toolchain=hardened --libdir=/usr/lib/x86_64-linux-gnu --incdir=/usr/include/x86_64-linux-gnu --arch=amd64 --enable-gpl --disable-stripping --enable-gnutls --enable-ladspa --enable-libaom --enable-libass --enable-libbluray --enable-libbs2b --enable-libcaca --enable-libcdio --enable-libcodec2 --enable-libdav1d --enable-libflite --enable-libfontconfig --enable-libfreetype --enable-libfribidi --enable-libgme --enable-libgsm --enable-libjack --enable-libmp3lame --enable-libmysofa --enable-libopenjpeg --enable-libopenmpt --enable-libopus --enable-libpulse --enable-librabbitmq --enable-librubberband --enable-libshine --enable-libsnappy --enable-libsoxr --enable-libspeex --enable-libsrt --enable-libssh --enable-libtheora --enable-libtwolame --enable-libvidstab --enable-libvorbis --enable-libvpx --enable-libwebp --enable-libx265 --enable-libxml2 --enable-libxvid --enable-libzimg --enable-libzmq --enable-libzvbi --enable-lv2 --enable-omx --enable-openal --enable-opencl --enable-opengl --enable-sdl2 --enable-pocketsphinx --enable-librsvg --enable-libmfx --enable-libdc1394 --enable-libdrm --enable-libiec61883 --enable-chromaprint --enable-frei0r --enable-libx264 --enable-shared
  libavutil      56. 70.100 / 56. 70.100
  libavcodec     58.134.100 / 58.134.100
  libavformat    58. 76.100 / 58. 76.100
  libavdevice    58. 13.100 / 58. 13.100
  libavfilter     7.110.100 /  7.110.100
  libswscale      5.  9.100 /  5.  9.100
  libswresample   3.  9.100 /  3.  9.100
  libpostproc    55.  9.100 / 55.  9.100
[flv @ 0x64bf96e4c400] Auto-inserting h264_mp4toannexb bitstream filter
Input #0, concat, from '/storage/32426326/20250722/32426326-20250722-145032-225.all.concat.txt':
  Duration: N/A, start: 0.000000, bitrate: 10436 kb/s
  Stream #0:0: Video: h264 (High), yuv420p(tv, bt709, progressive), 2560x1440 [SAR 1:1 DAR 16:9], 10240 kb/s, 60 fps, 60 tbr, 1k tbn, 120 tbc
  Stream #0:1: Audio: aac (LC), 48000 Hz, stereo, fltp, 196 kb/s
Output #0, flv, to '/storage/32426326/20250722/32426326-20250722-145032-225.all.flv':
  Metadata:
    encoder         : Lavf58.76.100
  Stream #0:0: Video: h264 (High) ([7][0][0][0] / 0x0007), yuv420p(tv, bt709, progressive), 2560x1440 [SAR 1:1 DAR 16:9], q=2-31, 10240 kb/s, 60 fps, 60 tbr, 1k tbn, 1k tbc
  Stream #0:1: Audio: aac (LC) ([10][0][0][0] / 0x000A), 48000 Hz, stereo, fltp, 196 kb/s
Stream mapping:
  Stream #0:0 -> #0:0 (copy)
  Stream #0:1 -> #0:1 (copy)
Press [q] to stop, [?] for help
frame=    1 fps=0.0 q=-1.0 size=       0kB time=00:00:00.00 bitrate=N/A speed=N/A    frame= 3674 fps=0.0 q=-1.0 size=   33792kB time=00:01:01.27 bitrate=4517.4kbits/s speed= 123x    frame= 5379 fps=5377 q=-1.0 size=   67584kB time=00:01:29.65 bitrate=6175.1kbits/s speed=89.6x    frame= 7104 fps=4728 q=-1.0 size=  102144kB time=00:01:58.42 bitrate=7065.9kbits/s speed=78.8x    frame= 8856 fps=4419 q=-1.0 size=  137728kB time=00:02:27.62 bitrate=7642.9kbits/s speed=73.7x    frame=10655 fps=4253 q=-1.0 size=  175104kB time=00:02:57.57 bitrate=8077.9kbits/s speed=70.9x    frame=12466 fps=4147 q=-1.0 size=  212736kB time=00:03:27.76 bitrate=8387.8kbits/s speed=69.1x    frame=14254 fps=4065 q=-1.0 size=  249856kB time=00:03:57.53 bitrate=8616.8kbits/s speed=67.7x    frame=16069 fps=4011 q=-1.0 size=  287488kB time=00:04:27.77 bitrate=8795.1kbits/s speed=66.8x    frame=17898 fps=3971 q=-1.0 size=  325888kB time=00:04:58.26 bitrate=8950.8kbits/s speed=66.2x    frame=19775 fps=3949 q=-1.0 size=  364544kB time=00:05:29.49 bitrate=9063.3kbits/s speed=65.8x    frame=21455 fps=3895 q=-1.0 size=  399616kB time=00:05:57.50 bitrate=9157.1kbits/s speed=64.9x    frame=23214 fps=3864 q=-1.0 size=  436224kB time=00:06:26.79 bitrate=9238.9kbits/s speed=64.4x    frame=24995 fps=3840 q=-1.0 size=  473344kB time=00:06:56.44 bitrate=9311.4kbits/s speed=  64x    frame=26712 fps=3811 q=-1.0 size=  508928kB time=00:07:25.06 bitrate=9367.5kbits/s speed=63.5x    frame=28458 fps=3789 q=-1.0 size=  545280kB time=00:07:54.15 bitrate=9420.9kbits/s speed=63.1x    frame=30230 fps=3774 q=-1.0 size=  582144kB time=00:08:23.64 bitrate=9468.9kbits/s speed=62.9x    frame=31840 fps=3741 q=-1.0 size=  615680kB time=00:08:50.49 bitrate=9507.5kbits/s speed=62.3x    frame=33591 fps=3727 q=-1.0 size=  652032kB time=00:09:19.64 bitrate=9544.3kbits/s speed=62.1x    frame=35310 fps=3712 q=-1.0 size=  687872kB time=00:09:48.29 bitrate=9578.6kbits/s speed=61.8x    frame=36901 fps=3685 q=-1.0 size=  720896kB time=00:10:14.79 bitrate=9605.7kbits/s speed=61.4x    frame=38657 fps=3677 q=-1.0 size=  756736kB time=00:10:44.05 bitrate=9625.3kbits/s speed=61.3x    frame=40388 fps=3667 q=-1.0 size=  792832kB time=00:11:12.86 bitrate=9652.6kbits/s speed=61.1x    frame=42099 fps=3656 q=-1.0 size=  828416kB time=00:11:41.39 bitrate=9675.6kbits/s speed=60.9x    frame=43849 fps=3649 q=-1.0 size=  864768kB time=00:12:10.53 bitrate=9697.2kbits/s speed=60.8x    frame=45588 fps=3642 q=-1.0 size=  900864kB time=00:12:39.51 bitrate=9716.6kbits/s speed=60.7x    frame=47263 fps=3630 q=-1.0 size=  935680kB time=00:13:07.39 bitrate=9734.7kbits/s speed=60.5x    frame=49060 fps=3629 q=-1.0 size=  973056kB time=00:13:37.35 bitrate=9752.5kbits/s speed=60.5x    frame=50747 fps=3619 q=-1.0 size= 1008128kB time=00:14:05.45 bitrate=9768.2kbits/s speed=60.3x    frame=52422 fps=3610 q=-1.0 size= 1042944kB time=00:14:33.37 bitrate=9782.5kbits/s speed=60.1x    frame=54231 fps=3610 q=-1.0 size= 1080320kB time=00:15:03.50 bitrate=9795.2kbits/s speed=60.1x    frame=55819 fps=3596 q=-1.0 size= 1113600kB time=00:15:29.97 bitrate=9809.6kbits/s speed=59.9x    frame=57599 fps=3595 q=-1.0 size= 1150720kB time=00:15:59.60 bitrate=9823.5kbits/s speed=59.9x    frame=59322 fps=3590 q=-1.0 size= 1186304kB time=00:16:28.30 bitrate=9833.2kbits/s speed=59.8x    frame=61033 fps=3585 q=-1.0 size= 1221888kB time=00:16:56.81 bitrate=9844.2kbits/s speed=59.7x    frame=62780 fps=3583 q=-1.0 size= 1258240kB time=00:17:25.91 bitrate=9855.0kbits/s speed=59.7x    frame=64419 fps=3574 q=-1.0 size= 1292288kB time=00:17:53.21 bitrate=9864.3kbits/s speed=59.5x    frame=66076 fps=3567 q=-1.0 size= 1326080kB time=00:18:20.83 bitrate=9868.2kbits/s speed=59.4x    frame=67849 fps=3566 q=-1.0 size= 1363200kB time=00:18:50.38 bitrate=9879.3kbits/s speed=59.4x    frame=69609 fps=3565 q=-1.0 size= 1399808kB time=00:19:19.69 bitrate=9888.2kbits/s speed=59.4x    frame=71341 fps=3563 q=-1.0 size= 1435648kB time=00:19:48.51 bitrate=9895.4kbits/s speed=59.4x    frame=73184 fps=3566 q=-1.0 size= 1474048kB time=00:20:19.23 bitrate=9904.1kbits/s speed=59.4x    frame=75043 fps=3569 q=-1.0 size= 1512704kB time=00:20:50.19 bitrate=9912.2kbits/s speed=59.5x    frame=76741 fps=3565 q=-1.0 size= 1548032kB time=00:21:18.49 bitrate=9919.1kbits/s speed=59.4x    frame=78548 fps=3566 q=-1.0 size= 1585664kB time=00:21:48.60 bitrate=9926.4kbits/s speed=59.4x    frame=80340 fps=3566 q=-1.0 size= 1622784kB time=00:22:18.45 bitrate=9932.3kbits/s speed=59.4x    frame=82129 fps=3567 q=-1.0 size= 1660160kB time=00:22:48.22 bitrate=9939.9kbits/s speed=59.4x    frame=83973 fps=3569 q=-1.0 size= 1698304kB time=00:23:18.96 bitrate=9944.8kbits/s speed=59.5x    frame=85745 fps=3569 q=-1.0 size= 1735168kB time=00:23:48.47 bitrate=9950.8kbits/s speed=59.5x    frame=87464 fps=3566 q=-1.0 size= 1771008kB time=00:24:17.07 bitrate=9957.0kbits/s speed=59.4x    frame=89222 fps=3565 q=-1.0 size= 1807360kB time=00:24:46.40 bitrate=9960.9kbits/s speed=59.4x    frame=91821 fps=3597 q=-1.0 size= 1844480kB time=00:25:29.67 bitrate=9877.9kbits/s speed=59.9x    frame=93627 fps=3597 q=-1.0 size= 1875200kB time=00:25:59.76 bitrate=9848.7kbits/s speed=59.9x    frame=99949 fps=3767 q=-1.0 size= 1907712kB time=00:27:45.11 bitrate=9385.5kbits/s speed=62.8x    frame=102967 fps=3809 q=-1.0 size= 1939456kB time=00:28:35.38 bitrate=9262.1kbits/s speed=63.5x    frame=104843 fps=3808 q=-1.0 size= 1973504kB time=00:29:06.66 bitrate=9255.9kbits/s speed=63.4x    frame=106835 fps=3811 q=-1.0 size= 2010368kB time=00:29:39.84 bitrate=9253.0kbits/s speed=63.5x    frame=109574 fps=3840 q=-1.0 size= 2043648kB time=00:30:25.48 bitrate=9171.0kbits/s speed=  64x    frame=111508 fps=3841 q=-1.0 size= 2077952kB time=00:30:57.71 bitrate=9163.2kbits/s speed=  64x    frame=113464 fps=3842 q=-1.0 size= 2114560kB time=00:31:30.28 bitrate=9164.0kbits/s speed=  64x    frame=115689 fps=3852 q=-1.0 size= 2150144kB time=00:32:07.33 bitrate=9139.0kbits/s speed=64.2x    frame=117439 fps=3846 q=-1.0 size= 2181632kB time=00:32:36.48 bitrate=9134.7kbits/s speed=64.1x    frame=119021 fps=3835 q=-1.0 size= 2214400kB time=00:33:02.81 bitrate=9148.8kbits/s speed=63.9x    frame=120581 fps=3824 q=-1.0 size= 2245120kB time=00:33:28.82 bitrate=9155.6kbits/s speed=63.7x    frame=122225 fps=3815 q=-1.0 size= 2277120kB time=00:33:56.19 bitrate=9161.3kbits/s speed=63.6x    frame=123995 fps=3811 q=-1.0 size= 2311680kB time=00:34:25.70 bitrate=9167.5kbits/s speed=63.5x    frame=125768 fps=3807 q=-1.0 size= 2344448kB time=00:34:55.24 bitrate=9166.3kbits/s speed=63.4x    frame=127357 fps=3798 q=-1.0 size= 2377472kB time=00:35:21.73 bitrate=9179.4kbits/s speed=63.3x    frame=129669 fps=3810 q=-1.0 size= 2410496kB time=00:36:00.25 bitrate=9140.9kbits/s speed=63.5x    frame=132145 fps=3826 q=-1.0 size= 2442240kB time=00:36:41.47 bitrate=9087.9kbits/s speed=63.7x    frame=134614 fps=3842 q=-1.0 size= 2476032kB time=00:37:22.60 bitrate=9044.7kbits/s speed=  64x    frame=136451 fps=3840 q=-1.0 size= 2509824kB time=00:37:53.20 bitrate=9044.7kbits/s speed=  64x    frame=138232 fps=3836 q=-1.0 size= 2543872kB time=00:38:22.86 bitrate=9049.3kbits/s speed=63.9x    frame=143313 fps=3922 q=-1.0 size= 2574592kB time=00:39:47.47 bitrate=8834.0kbits/s speed=65.3x    frame=145102 fps=3918 q=-1.0 size= 2610176kB time=00:40:17.29 bitrate=8845.7kbits/s speed=65.3x    frame=146706 fps=3908 q=-1.0 size= 2643456kB time=00:40:44.00 bitrate=8860.5kbits/s speed=65.1x    frame=149229 fps=3923 q=-1.0 size= 2678528kB time=00:41:26.02 bitrate=8826.4kbits/s speed=65.4x    frame=151769 fps=3938 q=-1.0 size= 2714368kB time=00:42:08.33 bitrate=8794.7kbits/s speed=65.6x    frame=154198 fps=3950 q=-1.0 size= 2748160kB time=00:42:48.77 bitrate=8764.1kbits/s speed=65.8x    frame=156061 fps=3947 q=-1.0 size= 2782720kB time=00:43:19.84 bitrate=8768.2kbits/s speed=65.7x    frame=157929 fps=3944 q=-1.0 size= 2817024kB time=00:43:50.95 bitrate=8771.4kbits/s speed=65.7x    frame=159643 fps=3938 q=-1.0 size= 2850560kB time=00:44:19.48 bitrate=8780.6kbits/s speed=65.6x    frame=161715 fps=3940 q=-1.0 size= 2883584kB time=00:44:54.03 bitrate=8768.4kbits/s speed=65.6x    frame=163757 fps=3942 q=-1.0 size= 2918912kB time=00:45:28.04 bitrate=8765.1kbits/s speed=65.7x    frame=166726 fps=3966 q=-1.0 size= 2953216kB time=00:46:17.52 bitrate=8710.2kbits/s speed=66.1x    frame=168918 fps=3971 q=-1.0 size= 2989824kB time=00:46:53.99 bitrate=8703.9kbits/s speed=66.1x    frame=170779 fps=3968 q=-1.0 size= 3025152kB time=00:47:25.01 bitrate=8710.7kbits/s speed=66.1x    frame=172535 fps=3962 q=-1.0 size= 3058432kB time=00:47:54.28 bitrate=8716.8kbits/s speed=  66x    frame=175949 fps=3995 q=-1.0 size= 3092736kB time=00:48:51.13 bitrate=8643.6kbits/s speed=66.6x    frame=177713 fps=3990 q=-1.0 size= 3127552kB time=00:49:20.53 bitrate=8654.2kbits/s speed=66.5x    frame=179608 fps=3987 q=-1.0 size= 3163136kB time=00:49:52.13 bitrate=8660.2kbits/s speed=66.4x    frame=181512 fps=3985 q=-1.0 size= 3198464kB time=00:50:23.82 bitrate=8665.1kbits/s speed=66.4x    frame=183251 fps=3980 q=-1.0 size= 3232512kB time=00:50:52.82 bitrate=8674.2kbits/s speed=66.3x    frame=185011 fps=3975 q=-1.0 size= 3265536kB time=00:51:22.14 bitrate=8679.4kbits/s speed=66.2x    frame=186925 fps=3973 q=-1.0 size= 3301376kB time=00:51:54.00 bitrate=8684.9kbits/s speed=66.2x    frame=189501 fps=3985 q=-1.0 size= 3335168kB time=00:52:36.94 bitrate=8654.5kbits/s speed=66.4x    frame=192854 fps=4014 q=-1.0 size= 3369728kB time=00:53:32.78 bitrate=8592.2kbits/s speed=66.9x    frame=195812 fps=4033 q=-1.0 size= 3403008kB time=00:54:22.08 bitrate=8545.9kbits/s speed=67.2x    frame=198189 fps=4041 q=-1.0 size= 3436288kB time=00:55:01.67 bitrate=8526.0kbits/s speed=67.3x    frame=200572 fps=4048 q=-1.0 size= 3469056kB time=00:55:41.38 bitrate=8505.0kbits/s speed=67.4x    frame=203048 fps=4057 q=-1.0 size= 3504384kB time=00:56:22.62 bitrate=8486.9kbits/s speed=67.6x    frame=205429 fps=4064 q=-1.0 size= 3537664kB time=00:57:02.31 bitrate=8468.1kbits/s speed=67.7x    frame=208457 fps=4083 q=-1.0 size= 3569408kB time=00:57:52.75 bitrate=8420.0kbits/s speed=  68x    frame=210287 fps=4079 q=-1.0 size= 3603712kB time=00:58:23.27 bitrate=8426.9kbits/s speed=  68x    frame=212224 fps=4077 q=-1.0 size= 3638784kB time=00:58:55.53 bitrate=8431.2kbits/s speed=67.9x    frame=213955 fps=4071 q=-1.0 size= 3674880kB time=00:59:24.37 bitrate=8446.0kbits/s speed=67.8x    frame=216083 fps=4073 q=-1.0 size= 3709952kB time=00:59:59.85 bitrate=8442.5kbits/s speed=67.9x    frame=218290 fps=4076 q=-1.0 size= 3742720kB time=01:00:36.60 bitrate=8431.0kbits/s speed=67.9x    frame=220307 fps=4076 q=-1.0 size= 3777792kB time=01:01:10.22 bitrate=8432.1kbits/s speed=67.9x    frame=222432 fps=4077 q=-1.0 size= 3814912kB time=01:01:45.61 bitrate=8433.6kbits/s speed=67.9x    frame=224430 fps=4077 q=-1.0 size= 3850240kB time=01:02:18.88 bitrate=8436.0kbits/s speed=67.9x    frame=227045 fps=4087 q=-1.0 size= 3888128kB time=01:03:02.45 bitrate=8420.9kbits/s speed=68.1x    frame=230516 fps=4112 q=-1.0 size= 3922688kB time=01:04:00.30 bitrate=8367.7kbits/s speed=68.5x    frame=233882 fps=4136 q=-1.0 size= 3955200kB time=01:04:56.33 bitrate=8315.8kbits/s speed=68.9x    frame=236385 fps=4143 q=-1.0 size= 3990528kB time=01:05:38.07 bitrate=8301.1kbits/s speed=  69x    frame=238939 fps=4151 q=-1.0 size= 4028928kB time=01:06:20.60 bitrate=8291.4kbits/s speed=69.2x    frame=241562 fps=4161 q=-1.0 size= 4061952kB time=01:07:04.30 bitrate=8268.6kbits/s speed=69.3x    frame=243837 fps=4164 q=-1.0 size= 4100352kB time=01:07:42.23 bitrate=8268.9kbits/s speed=69.4x    frame=245855 fps=4163 q=-1.0 size= 4138240kB time=01:08:15.84 bitrate=8276.8kbits/s speed=69.4x    frame=247771 fps=4160 q=-1.0 size= 4173056kB time=01:08:47.75 bitrate=8281.9kbits/s speed=69.3x    frame=249916 fps=4161 q=-1.0 size= 4210688kB time=01:09:23.49 bitrate=8284.8kbits/s speed=69.3x    frame=251986 fps=4161 q=-1.0 size= 4246528kB time=01:09:57.97 bitrate=8286.7kbits/s speed=69.3x    frame=253706 fps=4155 q=-1.0 size= 4281088kB time=01:10:26.62 bitrate=8297.6kbits/s speed=69.2x    frame=256499 fps=4167 q=-1.0 size= 4318720kB time=01:11:13.15 bitrate=8279.3kbits/s speed=69.4x    frame=258216 fps=4161 q=-1.0 size= 4354560kB time=01:11:41.73 bitrate=8292.6kbits/s speed=69.3x    frame=259918 fps=4155 q=-1.0 size= 4389888kB time=01:12:10.11 bitrate=8305.1kbits/s speed=69.2x    frame=262577 fps=4164 q=-1.0 size= 4428544kB time=01:12:54.39 bitrate=8293.4kbits/s speed=69.4x    frame=265332 fps=4174 q=-1.0 size= 4464896kB time=01:13:40.31 bitrate=8274.6kbits/s speed=69.5x    frame=267176 fps=4171 q=-1.0 size= 4503296kB time=01:14:11.00 bitrate=8288.2kbits/s speed=69.5x    frame=269091 fps=4168 q=-1.0 size= 4540416kB time=01:14:42.91 bitrate=8297.1kbits/s speed=69.4x    frame=271336 fps=4170 q=-1.0 size= 4576256kB time=01:15:20.33 bitrate=8293.3kbits/s speed=69.5x    frame=273037 fps=4164 q=-1.0 size= 4611584kB time=01:15:48.66 bitrate=8305.3kbits/s speed=69.4x    frame=275002 fps=4163 q=-1.0 size= 4649984kB time=01:16:21.39 bitrate=8314.7kbits/s speed=69.3x    frame=276809 fps=4158 q=-1.0 size= 4684032kB time=01:16:51.50 bitrate=8320.8kbits/s speed=69.3x    frame=278501 fps=4153 q=-1.0 size= 4717824kB time=01:17:19.72 bitrate=8329.9kbits/s speed=69.2x    frame=280960 fps=4158 q=-1.0 size= 4754176kB time=01:18:00.65 bitrate=8320.7kbits/s speed=69.3x    frame=283297 fps=4162 q=-1.0 size= 4788224kB time=01:18:39.60 bitrate=8311.1kbits/s speed=69.3x    frame=286125 fps=4173 q=-1.0 size= 4824320kB time=01:19:26.68 bitrate=8291.0kbits/s speed=69.5x    frame=289466 fps=4191 q=-1.0 size= 4862208kB time=01:20:22.35 bitrate=8259.7kbits/s speed=69.8x    frame=291322 fps=4187 q=-1.0 size= 4899840kB time=01:20:53.25 bitrate=8270.6kbits/s speed=69.8x    frame=293216 fps=4185 q=-1.0 size= 4939264kB time=01:21:24.83 bitrate=8283.3kbits/s speed=69.7x    frame=295889 fps=4193 q=-1.0 size= 4978944kB time=01:22:09.35 bitrate=8274.4kbits/s speed=69.8x    frame=298061 fps=4194 q=-1.0 size= 5013504kB time=01:22:45.53 bitrate=8271.1kbits/s speed=69.9x    frame=300038 fps=4192 q=-1.0 size= 5049344kB time=01:23:18.51 bitrate=8275.3kbits/s speed=69.8x    frame=302431 fps=4196 q=-1.0 size= 5085184kB time=01:23:58.36 bitrate=8268.1kbits/s speed=69.9x    frame=305018 fps=4203 q=-1.0 size= 5117696kB time=01:24:41.45 bitrate=8250.4kbits/s speed=  70x    frame=307711 fps=4211 q=-1.0 size= 5154560kB time=01:25:26.33 bitrate=8237.1kbits/s speed=70.2x    frame=310328 fps=4218 q=-1.0 size= 5193728kB time=01:26:09.94 bitrate=8229.7kbits/s speed=70.3x    frame=313307 fps=4230 q=-1.0 size= 5230336kB time=01:26:59.54 bitrate=8208.9kbits/s speed=70.5x    frame=317200 fps=4254 q=-1.0 size= 5267456kB time=01:28:04.40 bitrate=8165.7kbits/s speed=70.9x    frame=319784 fps=4260 q=-1.0 size= 5305344kB time=01:28:47.41 bitrate=8158.1kbits/s speed=  71x    frame=322714 fps=4270 q=-1.0 size= 5341440kB time=01:29:36.22 bitrate=8139.0kbits/s speed=71.1x    frame=325763 fps=4282 q=-1.0 size= 5377536kB time=01:30:27.00 bitrate=8117.3kbits/s speed=71.3x    frame=328961 fps=4296 q=-1.0 size= 5414400kB time=01:31:20.29 bitrate=8093.5kbits/s speed=71.6x    frame=331626 fps=4303 q=-1.0 size= 5451520kB time=01:32:04.70 bitrate=8083.5kbits/s speed=71.7x    frame=334518 fps=4312 q=-1.0 size= 5488896kB time=01:32:52.87 bitrate=8068.6kbits/s speed=71.8x    frame=336436 fps=4309 q=-1.0 size= 5526784kB time=01:33:24.86 bitrate=8077.9kbits/s speed=71.8x    frame=338262 fps=4305 q=-1.0 size= 5564672kB time=01:33:55.23 bitrate=8089.4kbits/s speed=71.7x    frame=340219 fps=4302 q=-1.0 size= 5604096kB time=01:34:27.85 bitrate=8099.8kbits/s speed=71.7x    frame=341976 fps=4297 q=-1.0 size= 5639680kB time=01:34:57.13 bitrate=8109.4kbits/s speed=71.6x    frame=343839 fps=4294 q=-1.0 size= 5676032kB time=01:35:28.13 bitrate=8117.5kbits/s speed=71.5x    frame=345631 fps=4289 q=-1.0 size= 5711104kB time=01:35:57.99 bitrate=8125.3kbits/s speed=71.5x    frame=347458 fps=4285 q=-1.0 size= 5748992kB time=01:36:28.44 bitrate=8136.2kbits/s speed=71.4x    frame=349318 fps=4282 q=-1.0 size= 5787648kB time=01:36:59.43 bitrate=8147.3kbits/s speed=71.3x    frame=351119 fps=4278 q=-1.0 size= 5821952kB time=01:37:29.44 bitrate=8153.5kbits/s speed=71.3x    frame=353503 fps=4281 q=-1.0 size= 5855488kB time=01:38:09.11 bitrate=8145.2kbits/s speed=71.3x    frame=355671 fps=4281 q=-1.0 size= 5894656kB time=01:38:45.22 bitrate=8149.7kbits/s speed=71.3x    frame=357450 fps=4277 q=-1.0 size= 5927680kB time=01:39:14.88 bitrate=8154.6kbits/s speed=71.2x    frame=359900 fps=4280 q=-1.0 size= 5963776kB time=01:39:55.69 bitrate=8148.4kbits/s speed=71.3x    frame=362762 fps=4289 q=-1.0 size= 6000640kB time=01:40:43.38 bitrate=8134.1kbits/s speed=71.4x    frame=364476 fps=4284 q=-1.0 size= 6033920kB time=01:41:11.93 bitrate=8140.7kbits/s speed=71.4x    frame=366506 fps=4282 q=-1.0 size= 6070272kB time=01:41:45.75 bitrate=8144.4kbits/s speed=71.3x    frame=368384 fps=4279 q=-1.0 size= 6106624kB time=01:42:17.04 bitrate=8151.4kbits/s speed=71.3x    frame=370086 fps=4274 q=-1.0 size= 6139648kB time=01:42:45.41 bitrate=8157.8kbits/s speed=71.2x    frame=372890 fps=4282 q=-1.0 size= 6176256kB time=01:43:32.09 bitrate=8144.7kbits/s speed=71.3x    frame=374712 fps=4278 q=-1.0 size= 6214144kB time=01:44:02.47 bitrate=8154.8kbits/s speed=71.3x    frame=376219 fps=4271 q=-1.0 size= 6245376kB time=01:44:27.57 bitrate=8163.0kbits/s speed=71.2x    frame=378006 fps=4267 q=-1.0 size= 6282496kB time=01:44:57.30 bitrate=8172.7kbits/s speed=71.1x    frame=379686 fps=4262 q=-1.0 size= 6317568kB time=01:45:25.32 bitrate=8182.0kbits/s speed=  71x    frame=381311 fps=4256 q=-1.0 size= 6351104kB time=01:45:52.36 bitrate=8190.4kbits/s speed=70.9x    frame=383115 fps=4253 q=-1.0 size= 6388480kB time=01:46:22.41 bitrate=8199.8kbits/s speed=70.8x    frame=384996 fps=4250 q=-1.0 size= 6423808kB time=01:46:53.72 bitrate=8204.9kbits/s speed=70.8x    frame=386758 fps=4246 q=-1.0 size= 6460672kB time=01:47:23.05 bitrate=8214.4kbits/s speed=70.7x    frame=388634 fps=4243 q=-1.0 size= 6497536kB time=01:47:54.27 bitrate=8221.4kbits/s speed=70.7x    frame=390364 fps=4239 q=-1.0 size= 6533376kB time=01:48:23.11 bitrate=8230.1kbits/s speed=70.6x    frame=392061 fps=4234 q=-1.0 size= 6568704kB time=01:48:51.38 bitrate=8238.8kbits/s speed=70.5x    frame=393814 fps=4230 q=-1.0 size= 6605056kB time=01:49:20.56 bitrate=8247.6kbits/s speed=70.5x    frame=395462 fps=4225 q=-1.0 size= 6639360kB time=01:49:48.03 bitrate=8255.8kbits/s speed=70.4x    frame=397361 fps=4223 q=-1.0 size= 6677248kB time=01:50:19.62 bitrate=8263.3kbits/s speed=70.4x    frame=399126 fps=4219 q=-1.0 size= 6714112kB time=01:50:49.04 bitrate=8272.2kbits/s speed=70.3x    frame=400869 fps=4216 q=-1.0 size= 6750208kB time=01:51:18.08 bitrate=8280.5kbits/s speed=70.2x    frame=402853 fps=4214 q=-1.0 size= 6786560kB time=01:51:51.13 bitrate=8284.1kbits/s speed=70.2x    frame=404705 fps=4212 q=-1.0 size= 6824448kB time=01:52:21.99 bitrate=8292.2kbits/s speed=70.2x    frame=406458 fps=4208 q=-1.0 size= 6860800kB time=01:52:51.15 bitrate=8300.5kbits/s speed=70.1x    frame=408315 fps=4205 q=-1.0 size= 6899712kB time=01:53:22.12 bitrate=8309.5kbits/s speed=70.1x    frame=410016 fps=4201 q=-1.0 size= 6934784kB time=01:53:50.40 bitrate=8317.2kbits/s speed=  70x    frame=411867 fps=4199 q=-1.0 size= 6971648kB time=01:54:21.22 bitrate=8323.8kbits/s speed=69.9x    frame=413842 fps=4197 q=-1.0 size= 7007488kB time=01:54:54.14 bitrate=8326.7kbits/s speed=69.9x    frame=417492 fps=4213 q=-1.0 size= 7043584kB time=01:55:54.95 bitrate=8296.4kbits/s speed=70.2x    frame=419073 fps=4208 q=-1.0 size= 7076352kB time=01:56:21.28 bitrate=8303.6kbits/s speed=70.1x    frame=420851 fps=4205 q=-1.0 size= 7112448kB time=01:56:50.89 bitrate=8310.7kbits/s speed=  70x    frame=422694 fps=4202 q=-1.0 size= 7150080kB time=01:57:21.59 bitrate=8318.2kbits/s speed=  70x    frame=424570 fps=4200 q=-1.0 size= 7186432kB time=01:57:52.80 bitrate=8323.6kbits/s speed=  70x    frame=426336 fps=4196 q=-1.0 size= 7223040kB time=01:58:22.20 bitrate=8331.4kbits/s speed=69.9x    frame=428243 fps=4195 q=-1.0 size= 7259392kB time=01:58:53.97 bitrate=8336.0kbits/s speed=69.9x    frame=429993 fps=4191 q=-1.0 size= 7295232kB time=01:59:23.12 bitrate=8343.1kbits/s speed=69.8x    frame=431754 fps=4188 q=-1.0 size= 7331584kB time=01:59:52.47 bitrate=8350.4kbits/s speed=69.8x    frame=433576 fps=4185 q=-1.0 size= 7368192kB time=02:00:22.80 bitrate=8356.9kbits/s speed=69.7x    frame=435387 fps=4182 q=-1.0 size= 7402752kB time=02:00:52.97 bitrate=8361.2kbits/s speed=69.7x    frame=437181 fps=4180 q=-1.0 size= 7439872kB time=02:01:22.88 bitrate=8368.6kbits/s speed=69.6x    frame=439061 fps=4178 q=-1.0 size= 7473920kB time=02:01:54.18 bitrate=8370.9kbits/s speed=69.6x    frame=440881 fps=4175 q=-1.0 size= 7508480kB time=02:02:24.49 bitrate=8374.9kbits/s speed=69.6x    frame=442810 fps=4174 q=-1.0 size= 7545344kB time=02:02:56.63 bitrate=8379.4kbits/s speed=69.5x    frame=444701 fps=4172 q=-1.0 size= 7581696kB time=02:03:28.14 bitrate=8383.9kbits/s speed=69.5x    frame=446557 fps=4170 q=-1.0 size= 7618560kB time=02:03:59.07 bitrate=8389.7kbits/s speed=69.5x    frame=448340 fps=4167 q=-1.0 size= 7655424kB time=02:04:28.75 bitrate=8396.7kbits/s speed=69.4x    frame=450107 fps=4164 q=-1.0 size= 7692288kB time=02:04:58.16 bitrate=8404.1kbits/s speed=69.4x    frame=451980 fps=4162 q=-1.0 size= 7729408kB time=02:05:29.37 bitrate=8409.6kbits/s speed=69.3x    frame=453824 fps=4160 q=-1.0 size= 7767808kB time=02:06:00.10 bitrate=8417.1kbits/s speed=69.3x    frame=455552 fps=4156 q=-1.0 size= 7803392kB time=02:06:28.89 bitrate=8423.5kbits/s speed=69.2x    frame=458656 fps=4166 q=-1.0 size= 7840768kB time=02:07:20.61 bitrate=8406.6kbits/s speed=69.4x    frame=461024 fps=4168 q=-1.0 size= 7878144kB time=02:08:00.06 bitrate=8403.3kbits/s speed=69.4x    frame=463592 fps=4172 q=-1.0 size= 7914752kB time=02:08:42.83 bitrate=8395.6kbits/s speed=69.5x    frame=465394 fps=4170 q=-1.0 size= 7950080kB time=02:09:12.85 bitrate=8400.4kbits/s speed=69.5x    frame=467332 fps=4169 q=-1.0 size= 7987968kB time=02:09:45.12 bitrate=8405.4kbits/s speed=69.4x    frame=469120 fps=4166 q=-1.0 size= 8023040kB time=02:10:14.91 bitrate=8410.2kbits/s speed=69.4x    frame=470929 fps=4163 q=-1.0 size= 8060672kB time=02:10:45.07 bitrate=8417.1kbits/s speed=69.4x    frame=473737 fps=4170 q=-1.0 size= 8098816kB time=02:11:31.86 bitrate=8406.8kbits/s speed=69.5x    frame=475599 fps=4168 q=-1.0 size= 8132608kB time=02:12:02.89 bitrate=8408.8kbits/s speed=69.4x    frame=477440 fps=4166 q=-1.0 size= 8167680kB time=02:12:33.51 bitrate=8412.6kbits/s speed=69.4x    frame=480215 fps=4172 q=-1.0 size= 8204032kB time=02:13:19.73 bitrate=8401.2kbits/s speed=69.5x    frame=482186 fps=4171 q=-1.0 size= 8240384kB time=02:13:52.59 bitrate=8403.9kbits/s speed=69.5x    frame=484083 fps=4169 q=-1.0 size= 8276736kB time=02:14:24.19 bitrate=8407.9kbits/s speed=69.5x    frame=486527 fps=4172 q=-1.0 size= 8313856kB time=02:15:04.86 bitrate=8403.2kbits/s speed=69.5x    frame=488504 fps=4171 q=-1.0 size= 8346368kB time=02:15:37.83 bitrate=8401.9kbits/s speed=69.5x    frame=490514 fps=4171 q=-1.0 size= 8383744kB time=02:16:11.30 bitrate=8405.0kbits/s speed=69.5x    frame=492381 fps=4169 q=-1.0 size= 8417792kB time=02:16:42.37 bitrate=8407.1kbits/s speed=69.4x    frame=494230 fps=4167 q=-1.0 size= 8450816kB time=02:17:13.17 bitrate=8408.6kbits/s speed=69.4x    frame=496224 fps=4166 q=-1.0 size= 8486912kB time=02:17:46.37 bitrate=8410.5kbits/s speed=69.4x    frame=498198 fps=4165 q=-1.0 size= 8524032kB time=02:18:19.23 bitrate=8413.9kbits/s speed=69.4x    frame=499922 fps=4162 q=-1.0 size= 8556800kB time=02:18:47.96 bitrate=8417.1kbits/s speed=69.3x    frame=501962 fps=4162 q=-1.0 size= 8593920kB time=02:19:21.95 bitrate=8419.3kbits/s speed=69.3x    frame=504773 fps=4168 q=-1.0 size= 8630272kB time=02:20:08.77 bitrate=8407.8kbits/s speed=69.4x    frame=506808 fps=4167 q=-1.0 size= 8662784kB time=02:20:42.65 bitrate=8405.6kbits/s speed=69.4x    frame=509284 fps=4170 q=-1.0 size= 8699904kB time=02:21:23.87 bitrate=8400.6kbits/s speed=69.5x    frame=511859 fps=4174 q=-1.0 size= 8736768kB time=02:22:06.79 bitrate=8393.7kbits/s speed=69.5x    frame=513952 fps=4174 q=-1.0 size= 8774656kB time=02:22:41.64 bitrate=8395.8kbits/s speed=69.5x    frame=517335 fps=4185 q=-1.0 size= 8811008kB time=02:23:38.02 bitrate=8375.4kbits/s speed=69.7x    frame=520756 fps=4196 q=-1.0 size= 8846848kB time=02:24:35.01 bitrate=8354.3kbits/s speed=69.9x    frame=522807 fps=4195 q=-1.0 size= 8883712kB time=02:25:09.19 bitrate=8356.2kbits/s speed=69.9x    frame=524998 fps=4196 q=-1.0 size= 8920576kB time=02:25:45.69 bitrate=8355.8kbits/s speed=69.9x    frame=527661 fps=4200 q=-1.0 size= 8956416kB time=02:26:30.05 bitrate=8347.0kbits/s speed=  70x    frame=529503 fps=4198 q=-1.0 size= 8994304kB time=02:27:00.73 bitrate=8353.2kbits/s speed=69.9x    frame=531273 fps=4196 q=-1.0 size= 9030656kB time=02:27:30.21 bitrate=8359.0kbits/s speed=69.9x    frame=532722 fps=4191 q=-1.0 size= 9060864kB time=02:27:54.32 bitrate=8364.2kbits/s speed=69.8x    frame=534725 fps=4190 q=-1.0 size= 9096448kB time=02:28:27.70 bitrate=8365.6kbits/s speed=69.8x    frame=536602 fps=4188 q=-1.0 size= 9135104kB time=02:28:58.93 bitrate=8371.8kbits/s speed=69.8x    frame=538240 fps=4185 q=-1.0 size= 9168896kB time=02:29:26.25 bitrate=8377.1kbits/s speed=69.7x    frame=540026 fps=4182 q=-1.0 size= 9205248kB time=02:29:55.99 bitrate=8382.5kbits/s speed=69.7x    frame=541824 fps=4180 q=-1.0 size= 9242112kB time=02:30:25.94 bitrate=8388.2kbits/s speed=69.6x    frame=544104 fps=4181 q=-1.0 size= 9275392kB time=02:31:03.92 bitrate=8383.1kbits/s speed=69.7x    frame=545869 fps=4179 q=-1.0 size= 9310208kB time=02:31:33.33 bitrate=8387.4kbits/s speed=69.6x    frame=547776 fps=4177 q=-1.0 size= 9347072kB time=02:32:05.11 bitrate=8391.3kbits/s speed=69.6x    frame=550836 fps=4185 q=-1.0 size= 9379072kB time=02:32:56.09 bitrate=8373.2kbits/s speed=69.7x    frame=552831 fps=4184 q=-1.0 size= 9412864kB time=02:33:29.29 bitrate=8373.1kbits/s speed=69.7x    frame=555880 fps=4191 q=-1.0 size= 9450240kB time=02:34:20.10 bitrate=8360.2kbits/s speed=69.8x    frame=557659 fps=4189 q=-1.0 size= 9485312kB time=02:34:49.75 bitrate=8364.4kbits/s speed=69.8x    frame=560421 fps=4194 q=-1.0 size= 9522432kB time=02:35:35.77 bitrate=8355.8kbits/s speed=69.9x    frame=562418 fps=4193 q=-1.0 size= 9558272kB time=02:36:09.03 bitrate=8357.5kbits/s speed=69.9x    frame=564491 fps=4193 q=-1.0 size= 9593600kB time=02:36:43.56 bitrate=8357.6kbits/s speed=69.8x    frame=567021 fps=4196 q=-1.0 size= 9629440kB time=02:37:25.71 bitrate=8351.3kbits/s speed=69.9x    frame=569677 fps=4200 q=-1.0 size= 9663488kB time=02:38:09.96 bitrate=8341.8kbits/s speed=  70x    frame=571589 fps=4199 q=-1.0 size= 9693952kB time=02:38:41.82 bitrate=8340.1kbits/s speed=69.9x    frame=573961 fps=4201 q=-1.0 size= 9730304kB time=02:39:21.34 bitrate=8336.8kbits/s speed=  70x    frame=575971 fps=4200 q=-1.0 size= 9766400kB time=02:39:54.82 bitrate=8338.5kbits/s speed=  70x    frame=577667 fps=4197 q=-1.0 size= 9798912kB time=02:40:23.04 bitrate=8341.7kbits/s speed=69.9x    frame=579478 fps=4195 q=-1.0 size= 9833216kB time=02:40:53.23 bitrate=8344.7kbits/s speed=69.9x    frame=581591 fps=4195 q=-1.0 size= 9867264kB time=02:41:28.42 bitrate=8343.2kbits/s speed=69.9x    frame=583848 fps=4196 q=-1.0 size= 9903872kB time=02:42:06.04 bitrate=8341.8kbits/s speed=69.9x    frame=586065 fps=4197 q=-1.0 size= 9938944kB time=02:42:42.97 bitrate=8339.7kbits/s speed=69.9x    frame=588388 fps=4199 q=-1.0 size= 9975808kB time=02:43:21.68 bitrate=8337.5kbits/s speed=69.9x    frame=590289 fps=4197 q=-1.0 size=10011648kB time=02:43:53.33 bitrate=8340.5kbits/s speed=69.9x    frame=592515 fps=4198 q=-1.0 size=10047488kB time=02:44:30.41 bitrate=8339.0kbits/s speed=69.9x    frame=594790 fps=4200 q=-1.0 size=10083840kB time=02:45:08.35 bitrate=8337.1kbits/s speed=  70x    frame=596851 fps=4199 q=-1.0 size=10118144kB time=02:45:42.66 bitrate=8336.6kbits/s speed=  70x    frame=598980 fps=4199 q=-1.0 size=10151424kB time=02:46:18.11 bitrate=8334.3kbits/s speed=  70x    frame=601294 fps=4201 q=-1.0 size=10185728kB time=02:46:56.66 bitrate=8330.3kbits/s speed=  70x    frame=603620 fps=4202 q=-1.0 size=10222336kB time=02:47:35.38 bitrate=8328.0kbits/s speed=  70x    frame=605856 fps=4203 q=-1.0 size=10255360kB time=02:48:12.66 bitrate=8324.1kbits/s speed=  70x    frame=608065 fps=4204 q=-1.0 size=10290176kB time=02:48:49.47 bitrate=8322.0kbits/s speed=  70x    frame=610588 fps=4207 q=-1.0 size=10327040kB time=02:49:31.49 bitrate=8317.3kbits/s speed=70.1x    frame=613485 fps=4212 q=-1.0 size=10356736kB time=02:50:19.74 bitrate=8301.8kbits/s speed=70.2x    frame=615665 fps=4213 q=-1.0 size=10390272kB time=02:50:56.03 bitrate=8299.2kbits/s speed=70.2x    frame=617553 fps=4211 q=-1.0 size=10426624kB time=02:51:27.49 bitrate=8302.8kbits/s speed=70.2x    frame=620045 fps=4214 q=-1.0 size=10457600kB time=02:52:09.00 bitrate=8294.0kbits/s speed=70.2x    frame=622844 fps=4219 q=-1.0 size=10493696kB time=02:52:55.64 bitrate=8285.2kbits/s speed=70.3x    frame=625592 fps=4223 q=-1.0 size=10528768kB time=02:53:41.41 bitrate=8276.4kbits/s speed=70.4x    frame=627255 fps=4220 q=-1.0 size=10558976kB time=02:54:09.12 bitrate=8278.1kbits/s speed=70.3x    frame=629572 fps=4221 q=-1.0 size=10594560kB time=02:54:47.74 bitrate=8275.4kbits/s speed=70.3x    frame=631850 fps=4223 q=-1.0 size=10630912kB time=02:55:25.70 bitrate=8273.9kbits/s speed=70.3x    frame=633834 fps=4222 q=-1.0 size=10663680kB time=02:55:58.76 bitrate=8273.4kbits/s speed=70.3x    frame=636690 fps=4227 q=-1.0 size=10701568kB time=02:56:46.31 bitrate=8265.6kbits/s speed=70.4x    frame=639324 fps=4230 q=-1.0 size=10737664kB time=02:57:30.23 bitrate=8259.3kbits/s speed=70.5x    frame=641087 fps=4228 q=-1.0 size=10770688kB time=02:57:59.57 bitrate=8261.9kbits/s speed=70.4x    frame=644279 fps=4235 q=-1.0 size=10806528kB time=02:58:52.75 bitrate=8248.3kbits/s speed=70.5x    frame=646294 fps=4234 q=-1.0 size=10842112kB time=02:59:26.34 bitrate=8249.6kbits/s speed=70.5x    frame=648349 fps=4234 q=-1.0 size=10873856kB time=03:00:00.58 bitrate=8247.6kbits/s speed=70.5x    frame=650637 fps=4235 q=-1.0 size=10912000kB time=03:00:38.65 bitrate=8247.4kbits/s speed=70.5x    frame=652591 fps=4234 q=-1.0 size=10946560kB time=03:01:11.23 bitrate=8248.8kbits/s speed=70.5x    frame=654656 fps=4233 q=-1.0 size=10979584kB time=03:01:45.64 bitrate=8247.5kbits/s speed=70.5x    frame=657441 fps=4238 q=-1.0 size=11016448kB time=03:02:32.02 bitrate=8240.2kbits/s speed=70.6x    frame=659135 fps=4235 q=-1.0 size=11051520kB time=03:03:00.21 bitrate=8245.2kbits/s speed=70.5x    frame=660946 fps=4233 q=-1.0 size=11085568kB time=03:03:30.40 bitrate=8247.9kbits/s speed=70.5x    frame=662826 fps=4231 q=-1.0 size=11122688kB time=03:04:01.73 bitrate=8252.1kbits/s speed=70.5x    frame=664598 fps=4229 q=-1.0 size=11154944kB time=03:04:31.24 bitrate=8253.9kbits/s speed=70.5x    frame=666853 fps=4230 q=-1.0 size=11191040kB time=03:05:08.82 bitrate=8252.6kbits/s speed=70.5x    frame=668902 fps=4230 q=-1.0 size=11228672kB time=03:05:42.97 bitrate=8255.0kbits/s speed=70.5x    frame=670670 fps=4227 q=-1.0 size=11261184kB time=03:06:12.39 bitrate=8257.1kbits/s speed=70.4x    frame=673225 fps=4230 q=-1.0 size=11297536kB time=03:06:54.96 bitrate=8252.3kbits/s speed=70.5x    frame=675785 fps=4233 q=-1.0 size=11333632kB time=03:07:37.64 bitrate=8247.3kbits/s speed=70.5x    frame=677983 fps=4234 q=-1.0 size=11366400kB time=03:08:14.26 bitrate=8244.3kbits/s speed=70.5x    frame=680787 fps=4238 q=-1.0 size=11401728kB time=03:09:00.97 bitrate=8235.9kbits/s speed=70.6x    frame=683004 fps=4238 q=-1.0 size=11440384kB time=03:09:37.91 bitrate=8237.0kbits/s speed=70.6x    frame=684979 fps=4238 q=-1.0 size=11476480kB time=03:10:10.81 bitrate=8239.1kbits/s speed=70.6x    frame=687059 fps=4237 q=-1.0 size=11514880kB time=03:10:45.48 bitrate=8241.7kbits/s speed=70.6x    frame=689184 fps=4237 q=-1.0 size=11552512kB time=03:11:20.88 bitrate=8243.1kbits/s speed=70.6x    frame=691133 fps=4236 q=-1.0 size=11587072kB time=03:11:53.36 bitrate=8244.4kbits/s speed=70.6x    frame=693079 fps=4235 q=-1.0 size=11623680kB time=03:12:25.77 bitrate=8247.3kbits/s speed=70.6x    frame=695032 fps=4234 q=-1.0 size=11660544kB time=03:12:58.32 bitrate=8250.2kbits/s speed=70.5x    frame=696627 fps=4231 q=-1.0 size=11691264kB time=03:13:24.88 bitrate=8253.0kbits/s speed=70.5x    frame=699354 fps=4235 q=-1.0 size=11725824kB time=03:14:10.28 bitrate=8245.1kbits/s speed=70.5x    frame=702113 fps=4238 q=-1.0 size=11763712kB time=03:14:56.28 bitrate=8239.2kbits/s speed=70.6x    frame=705215 fps=4244 q=-1.0 size=11797504kB time=03:15:47.94 bitrate=8226.6kbits/s speed=70.7x    frame=707730 fps=4247 q=-1.0 size=11836160kB time=03:16:29.85 bitrate=8224.2kbits/s speed=70.7x    frame=710707 fps=4252 q=-1.0 size=11873280kB time=03:17:19.44 bitrate=8215.4kbits/s speed=70.8x    frame=713427 fps=4255 q=-1.0 size=11908352kB time=03:18:04.75 bitrate=8208.3kbits/s speed=70.9x    frame=716266 fps=4260 q=-1.0 size=11944960kB time=03:18:52.00 bitrate=8200.9kbits/s speed=  71x    frame=718492 fps=4260 q=-1.0 size=11982592kB time=03:19:29.07 bitrate=8201.3kbits/s speed=  71x    frame=722802 fps=4273 q=-1.0 size=12015104kB time=03:20:40.88 bitrate=8174.5kbits/s speed=71.2x    frame=726734 fps=4284 q=-1.0 size=12052224kB time=03:21:46.41 bitrate=8155.3kbits/s speed=71.4x    frame=730158 fps=4291 q=-1.0 size=12087552kB time=03:22:43.45 bitrate=8140.9kbits/s speed=71.5x    frame=732040 fps=4290 q=-1.0 size=12121088kB time=03:23:14.76 bitrate=8142.5kbits/s speed=71.5x    frame=734690 fps=4292 q=-1.0 size=12158720kB time=03:23:58.91 bitrate=8138.3kbits/s speed=71.5x    frame=737183 fps=4294 q=-1.0 size=12193792kB time=03:24:40.44 bitrate=8134.2kbits/s speed=71.5x    frame=739377 fps=4295 q=-1.0 size=12226560kB time=03:25:17.02 bitrate=8131.8kbits/s speed=71.5x    frame=743671 fps=4307 q=-1.0 size=12262144kB time=03:26:28.55 bitrate=8108.4kbits/s speed=71.8x    frame=745588 fps=4306 q=-1.0 size=12296704kB time=03:27:00.49 bitrate=8110.4kbits/s speed=71.7x    frame=747263 fps=4303 q=-1.0 size=12329216kB time=03:27:28.35 bitrate=8113.6kbits/s speed=71.7x    frame=750696 fps=4310 q=-1.0 size=12365056kB time=03:28:25.53 bitrate=8100.0kbits/s speed=71.8x    frame=752685 fps=4309 q=-1.0 size=12398848kB time=03:28:58.65 bitrate=8100.7kbits/s speed=71.8x    frame=754835 fps=4309 q=-1.0 size=12435200kB time=03:29:34.48 bitrate=8101.3kbits/s speed=71.8x    frame=757009 fps=4309 q=-1.0 size=12472576kB time=03:30:10.67 bitrate=8102.3kbits/s speed=71.8x    frame=759137 fps=4309 q=-1.0 size=12507648kB time=03:30:46.16 bitrate=8102.3kbits/s speed=71.8x    frame=761224 fps=4309 q=-1.0 size=12543232kB time=03:31:20.93 bitrate=8103.0kbits/s speed=71.8x    frame=763578 fps=4310 q=-1.0 size=12580864kB time=03:32:00.13 bitrate=8102.3kbits/s speed=71.8x    frame=765745 fps=4310 q=-1.0 size=12615168kB time=03:32:36.22 bitrate=8101.4kbits/s speed=71.8x    frame=768088 fps=4311 q=-1.0 size=12651520kB time=03:33:15.27 bitrate=8100.0kbits/s speed=71.8x    frame=770624 fps=4313 q=-1.0 size=12686336kB time=03:33:57.50 bitrate=8095.5kbits/s speed=71.9x    frame=773174 fps=4315 q=-1.0 size=12719104kB time=03:34:39.97 bitrate=8089.7kbits/s speed=71.9x    frame=775329 fps=4315 q=-1.0 size=12755712kB time=03:35:15.89 bitrate=8090.4kbits/s speed=71.9x    frame=778389 fps=4320 q=-1.0 size=12792832kB time=03:36:06.86 bitrate=8082.0kbits/s speed=  72x    frame=780668 fps=4321 q=-1.0 size=12826624kB time=03:36:44.84 bitrate=8079.7kbits/s speed=  72x    frame=782858 fps=4321 q=-1.0 size=12863232kB time=03:37:21.31 bitrate=8080.1kbits/s speed=  72x    frame=785807 fps=4326 q=-1.0 size=12901376kB time=03:38:10.44 bitrate=8073.7kbits/s speed=72.1x    frame=789146 fps=4332 q=-1.0 size=12934400kB time=03:39:06.02 bitrate=8060.1kbits/s speed=72.2x    frame=791780 fps=4335 q=-1.0 size=12972800kB time=03:39:49.90 bitrate=8057.2kbits/s speed=72.2x    frame=793915 fps=4334 q=-1.0 size=13011200kB time=03:40:25.46 bitrate=8059.3kbits/s speed=72.2x    frame=796483 fps=4337 q=-1.0 size=13047552kB time=03:41:08.24 bitrate=8055.7kbits/s speed=72.2x    frame=799105 fps=4339 q=-1.0 size=13085696kB time=03:41:51.91 bitrate=8052.8kbits/s speed=72.3x    frame=801225 fps=4339 q=-1.0 size=13124096kB time=03:42:27.23 bitrate=8055.0kbits/s speed=72.3x    frame=804280 fps=4343 q=-1.0 size=13160960kB time=03:43:18.12 bitrate=8047.0kbits/s speed=72.4x    frame=807409 fps=4349 q=-1.0 size=13197312kB time=03:44:10.22 bitrate=8038.0kbits/s speed=72.4x    frame=809395 fps=4348 q=-1.0 size=13232640kB time=03:44:43.33 bitrate=8039.7kbits/s speed=72.4x    frame=811275 fps=4346 q=-1.0 size=13268992kB time=03:45:14.67 bitrate=8043.1kbits/s speed=72.4x    frame=813436 fps=4346 q=-1.0 size=13306624kB time=03:45:50.65 bitrate=8044.5kbits/s speed=72.4x    frame=815613 fps=4346 q=-1.0 size=13341696kB time=03:46:26.93 bitrate=8044.1kbits/s speed=72.4x    frame=817540 fps=4345 q=-1.0 size=13380096kB time=03:46:59.01 bitrate=8048.3kbits/s speed=72.4x    frame=819238 fps=4342 q=-1.0 size=13415168kB time=03:47:27.34 bitrate=8052.6kbits/s speed=72.3x    frame=821184 fps=4341 q=-1.0 size=13449216kB time=03:47:59.76 bitrate=8053.9kbits/s speed=72.3x    frame=823612 fps=4342 q=-1.0 size=13484800kB time=03:48:40.21 bitrate=8051.4kbits/s speed=72.3x    frame=825453 fps=4340 q=-1.0 size=13521664kB time=03:49:10.88 bitrate=8055.4kbits/s speed=72.3x    frame=827848 fps=4342 q=-1.0 size=13555200kB time=03:49:50.76 bitrate=8052.1kbits/s speed=72.3x    frame=829664 fps=4340 q=-1.0 size=13591552kB time=03:50:21.02 bitrate=8056.0kbits/s speed=72.3x    frame=831700 fps=4339 q=-1.0 size=13627904kB time=03:50:54.96 bitrate=8057.7kbits/s speed=72.3x    frame=833444 fps=4337 q=-1.0 size=13664000kB time=03:51:24.01 bitrate=8062.2kbits/s speed=72.2x    frame=835164 fps=4335 q=-1.0 size=13697280kB time=03:51:52.68 bitrate=8065.2kbits/s speed=72.2x    frame=837577 fps=4336 q=-1.0 size=13733120kB time=03:52:32.85 bitrate=8063.0kbits/s speed=72.2x    frame=839478 fps=4334 q=-1.0 size=13769216kB time=03:53:04.53 bitrate=8065.9kbits/s speed=72.2x    frame=841454 fps=4333 q=-1.0 size=13805056kB time=03:53:37.45 bitrate=8067.9kbits/s speed=72.2x    frame=843392 fps=4332 q=-1.0 size=13841920kB time=03:54:09.72 bitrate=8070.8kbits/s speed=72.2x    frame=845992 fps=4334 q=-1.0 size=13877760kB time=03:54:52.98 bitrate=8066.9kbits/s speed=72.2x    frame=848014 fps=4334 q=-1.0 size=13913856kB time=03:55:26.69 bitrate=8068.6kbits/s speed=72.2x    frame=850120 fps=4333 q=-1.0 size=13950464kB time=03:56:01.75 bitrate=8069.8kbits/s speed=72.2x    frame=852198 fps=4333 q=-1.0 size=13988096kB time=03:56:36.41 bitrate=8071.8kbits/s speed=72.2x    frame=854267 fps=4332 q=-1.0 size=14021632kB time=03:57:10.87 bitrate=8071.5kbits/s speed=72.2x    frame=856097 fps=4331 q=-1.0 size=14058496kB time=03:57:41.37 bitrate=8075.5kbits/s speed=72.1x    frame=857901 fps=4329 q=-1.0 size=14095872kB time=03:58:11.37 bitrate=8079.9kbits/s speed=72.1x    frame=860067 fps=4329 q=-1.0 size=14130176kB time=03:58:47.47 bitrate=8079.2kbits/s speed=72.1x    frame=862679 fps=4331 q=-1.0 size=14167808kB time=03:59:30.99 bitrate=8076.2kbits/s speed=72.1x    frame=864558 fps=4330 q=-1.0 size=14204928kB time=04:00:02.31 bitrate=8079.7kbits/s speed=72.1x    frame=866162 fps=4327 q=-1.0 size=14238464kB time=04:00:29.02 bitrate=8083.8kbits/s speed=72.1x    frame=868826 fps=4329 q=-1.0 size=14276352kB time=04:01:13.39 bitrate=8080.5kbits/s speed=72.1x    frame=871572 fps=4332 q=-1.0 size=14313216kB time=04:01:59.18 bitrate=8075.8kbits/s speed=72.2x    frame=873674 fps=4332 q=-1.0 size=14345472kB time=04:02:34.20 bitrate=8074.5kbits/s speed=72.2x    frame=875738 fps=4331 q=-1.0 size=14380800kB time=04:03:08.55 bitrate=8075.3kbits/s speed=72.2x    frame=877917 fps=4331 q=-1.0 size=14418432kB time=04:03:44.89 bitrate=8076.4kbits/s speed=72.2x    frame=881252 fps=4337 q=-1.0 size=14452480kB time=04:04:40.44 bitrate=8064.8kbits/s speed=72.2x    frame=883278 fps=4336 q=-1.0 size=14490112kB time=04:05:14.18 bitrate=8067.3kbits/s speed=72.2x    frame=886143 fps=4340 q=-1.0 size=14526720kB time=04:06:01.91 bitrate=8061.5kbits/s speed=72.3x    frame=887963 fps=4338 q=-1.0 size=14562816kB time=04:06:32.23 bitrate=8064.9kbits/s speed=72.3x    frame=889971 fps=4337 q=-1.0 size=14601472kB time=04:07:05.71 bitrate=8068.1kbits/s speed=72.3x    frame=891734 fps=4335 q=-1.0 size=14638080kB time=04:07:35.06 bitrate=8072.3kbits/s speed=72.2x    frame=895137 fps=4341 q=-1.0 size=14674432kB time=04:08:31.79 bitrate=8061.6kbits/s speed=72.3x    frame=897555 fps=4342 q=-1.0 size=14712064kB time=04:09:12.05 bitrate=8060.5kbits/s speed=72.3x    frame=899348 fps=4341 q=-1.0 size=14747904kB time=04:09:41.93 bitrate=8064.0kbits/s speed=72.3x    frame=901076 fps=4338 q=-1.0 size=14782720kB time=04:10:10.73 bitrate=8067.6kbits/s speed=72.3x    frame=903066 fps=4338 q=-1.0 size=14821376kB time=04:10:43.85 bitrate=8070.9kbits/s speed=72.3x    frame=905434 fps=4339 q=-1.0 size=14856192kB time=04:11:23.30 bitrate=8068.7kbits/s speed=72.3x    frame=907476 fps=4338 q=-1.0 size=14893312kB time=04:11:57.34 bitrate=8070.6kbits/s speed=72.3x    frame=909953 fps=4339 q=-1.0 size=14930944kB time=04:12:38.60 bitrate=8069.0kbits/s speed=72.3x    frame=911685 fps=4337 q=-1.0 size=14967040kB time=04:13:07.45 bitrate=8073.1kbits/s speed=72.3x    frame=913609 fps=4336 q=-1.0 size=15004416kB time=04:13:39.49 bitrate=8076.2kbits/s speed=72.2x    frame=915392 fps=4334 q=-1.0 size=15041280kB time=04:14:09.19 bitrate=8080.3kbits/s speed=72.2x    frame=918570 fps=4339 q=-1.0 size=15075328kB time=04:15:02.15 bitrate=8070.6kbits/s speed=72.3x    frame=920433 fps=4338 q=-1.0 size=15111936kB time=04:15:33.18 bitrate=8073.8kbits/s speed=72.3x    frame=922287 fps=4336 q=-1.0 size=15149824kB time=04:16:04.10 bitrate=8077.7kbits/s speed=72.2x    frame=924042 fps=4334 q=-1.0 size=15183104kB time=04:16:33.32 bitrate=8080.1kbits/s speed=72.2x    frame=926870 fps=4337 q=-1.0 size=15220992kB time=04:17:20.42 bitrate=8075.6kbits/s speed=72.3x    frame=929003 fps=4337 q=-1.0 size=15256064kB time=04:17:55.98 bitrate=8075.6kbits/s speed=72.3x    frame=931017 fps=4336 q=-1.0 size=15289856kB time=04:18:29.51 bitrate=8076.0kbits/s speed=72.2x    frame=933160 fps=4336 q=-1.0 size=15325184kB time=04:19:05.22 bitrate=8076.0kbits/s speed=72.2x    frame=935014 fps=4335 q=-1.0 size=15357696kB time=04:19:36.12 bitrate=8077.1kbits/s speed=72.2x    frame=937332 fps=4335 q=-1.0 size=15395840kB time=04:20:14.73 bitrate=8077.2kbits/s speed=72.2x    frame=939583 fps=4336 q=-1.0 size=15431680kB time=04:20:52.21 bitrate=8076.6kbits/s speed=72.2x    frame=941816 fps=4336 q=-1.0 size=15467776kB time=04:21:29.42 bitrate=8076.3kbits/s speed=72.2x    frame=943933 fps=4336 q=-1.0 size=15504896kB time=04:22:04.70 bitrate=8077.5kbits/s speed=72.2x    frame=945530 fps=4333 q=-1.0 size=15537664kB time=04:22:31.27 bitrate=8080.9kbits/s speed=72.2x    frame=947322 fps=4332 q=-1.0 size=15571712kB time=04:23:01.12 bitrate=8083.3kbits/s speed=72.2x    frame=949394 fps=4331 q=-1.0 size=15608064kB time=04:23:35.66 bitrate=8084.5kbits/s speed=72.2x    frame=951691 fps=4332 q=-1.0 size=15644672kB time=04:24:13.93 bitrate=8083.9kbits/s speed=72.2x    frame=953884 fps=4332 q=-1.0 size=15680768kB time=04:24:50.45 bitrate=8083.9kbits/s speed=72.2x    frame=955915 fps=4331 q=-1.0 size=15717632kB time=04:25:24.29 bitrate=8085.7kbits/s speed=72.2x    frame=958368 fps=4333 q=-1.0 size=15748352kB time=04:26:05.15 bitrate=8080.8kbits/s speed=72.2x    frame=960067 fps=4330 q=-1.0 size=15781632kB time=04:26:33.41 bitrate=8083.5kbits/s speed=72.1x    frame=962107 fps=4330 q=-1.0 size=15817216kB time=04:27:07.39 bitrate=8084.6kbits/s speed=72.1x    frame=964475 fps=4331 q=-1.0 size=15849728kB time=04:27:46.82 bitrate=8081.3kbits/s speed=72.1x    frame=966172 fps=4329 q=-1.0 size=15883264kB time=04:28:15.12 bitrate=8084.2kbits/s speed=72.1x    frame=968558 fps=4330 q=-1.0 size=15917312kB time=04:28:54.87 bitrate=8081.5kbits/s speed=72.1x    frame=970308 fps=4328 q=-1.0 size=15950592kB time=04:29:24.01 bitrate=8083.8kbits/s speed=72.1x    frame=972045 fps=4326 q=-1.0 size=15982592kB time=04:29:52.96 bitrate=8085.6kbits/s speed=72.1x    frame=973859 fps=4324 q=-1.0 size=16018432kB time=04:30:23.17 bitrate=8088.6kbits/s speed=  72x    frame=977006 fps=4329 q=-1.0 size=16053504kB time=04:31:15.61 bitrate=8080.2kbits/s speed=72.1x    frame=978970 fps=4328 q=-1.0 size=16087552kB time=04:31:48.33 bitrate=8081.1kbits/s speed=72.1x    frame=981116 fps=4328 q=-1.0 size=16123392kB time=04:32:24.09 bitrate=8081.4kbits/s speed=72.1x    frame=983113 fps=4327 q=-1.0 size=16160256kB time=04:32:57.34 bitrate=8083.4kbits/s speed=72.1x    frame=985919 fps=4330 q=-1.0 size=16193792kB time=04:33:44.07 bitrate=8077.1kbits/s speed=72.1x    frame=987482 fps=4327 q=-1.0 size=16223744kB time=04:34:10.12 bitrate=8079.3kbits/s speed=72.1x    frame=989124 fps=4325 q=-1.0 size=16256000kB time=04:34:37.49 bitrate=8081.9kbits/s speed=  72x    frame=991343 fps=4325 q=-1.0 size=16291328kB time=04:35:14.44 bitrate=8081.3kbits/s speed=  72x    frame=992982 fps=4323 q=-1.0 size=16322816kB time=04:35:41.72 bitrate=8083.6kbits/s speed=  72x    frame=997051 fps=4331 q=-1.0 size=16358656kB time=04:36:49.45 bitrate=8068.3kbits/s speed=72.1x    frame=999196 fps=4331 q=-1.0 size=16395264kB time=04:37:25.21 bitrate=8069.0kbits/s speed=72.1x    frame=1001091 fps=4330 q=-1.0 size=16433152kB time=04:37:56.75 bitrate=8072.3kbits/s speed=72.1x    frame=1002867 fps=4328 q=-1.0 size=16470016kB time=04:38:26.35 bitrate=8076.1kbits/s speed=72.1x    frame=1004873 fps=4327 q=-1.0 size=16504832kB time=04:38:59.75 bitrate=8077.0kbits/s speed=72.1x    frame=1006656 fps=4326 q=-1.0 size=16541952kB time=04:39:29.45 bitrate=8080.9kbits/s speed=72.1x    frame=1008438 fps=4324 q=-1.0 size=16578816kB time=04:39:59.11 bitrate=8084.6kbits/s speed=  72x    frame=1009992 fps=4321 q=-1.0 size=16611072kB time=04:40:25.02 bitrate=8087.8kbits/s speed=  72x    frame=1011787 fps=4320 q=-1.0 size=16648448kB time=04:40:54.93 bitrate=8091.6kbits/s speed=  72x    frame=1013531 fps=4318 q=-1.0 size=16684800kB time=04:41:23.95 bitrate=8095.4kbits/s speed=71.9x    frame=1015114 fps=4316 q=-1.0 size=16717568kB time=04:41:50.33 bitrate=8098.6kbits/s speed=71.9x    frame=1016890 fps=4314 q=-1.0 size=16754432kB time=04:42:19.88 bitrate=8102.3kbits/s speed=71.9x    frame=1018669 fps=4312 q=-1.0 size=16791296kB time=04:42:49.53 bitrate=8106.0kbits/s speed=71.8x    frame=1020251 fps=4310 q=-1.0 size=16824320kB time=04:43:15.90 bitrate=8109.3kbits/s speed=71.8x    frame=1022011 fps=4308 q=-1.0 size=16860928kB time=04:43:45.21 bitrate=8112.9kbits/s speed=71.8x    frame=1023587 fps=4306 q=-1.0 size=16893696kB time=04:44:11.45 bitrate=8116.2kbits/s speed=71.7x    frame=1025361 fps=4304 q=-1.0 size=16930560kB time=04:44:40.99 bitrate=8119.8kbits/s speed=71.7x    frame=1027127 fps=4303 q=-1.0 size=16967168kB time=04:45:10.43 bitrate=8123.4kbits/s speed=71.7x    frame=1028696 fps=4300 q=-1.0 size=16999936kB time=04:45:36.60 bitrate=8126.7kbits/s speed=71.6x    frame=1030300 fps=4298 q=-1.0 size=17033216kB time=04:46:03.31 bitrate=8129.9kbits/s speed=71.6x    frame=1032069 fps=4296 q=-1.0 size=17069824kB time=04:46:32.79 bitrate=8133.4kbits/s speed=71.6x    frame=1033606 fps=4294 q=-1.0 size=17101824kB time=04:46:58.40 bitrate=8136.5kbits/s speed=71.5x    frame=1035329 fps=4292 q=-1.0 size=17137664kB time=04:47:27.11 bitrate=8140.0kbits/s speed=71.5x    frame=1037419 fps=4292 q=-1.0 size=17175808kB time=04:48:01.92 bitrate=8141.7kbits/s speed=71.5x    frame=1038912 fps=4289 q=-1.0 size=17206784kB time=04:48:26.79 bitrate=8144.7kbits/s speed=71.4x    frame=1040841 fps=4288 q=-1.0 size=17242624kB time=04:48:58.88 bitrate=8146.5kbits/s speed=71.4x    frame=1042701 fps=4287 q=-1.0 size=17278464kB time=04:49:29.85 bitrate=8148.9kbits/s speed=71.4x    frame=1044463 fps=4285 q=-1.0 size=17315328kB time=04:49:59.22 bitrate=8152.5kbits/s speed=71.4x    frame=1046198 fps=4284 q=-1.0 size=17351424kB time=04:50:28.10 bitrate=8156.0kbits/s speed=71.4x    frame=1047890 fps=4282 q=-1.0 size=17386496kB time=04:50:56.29 bitrate=8159.2kbits/s speed=71.3x    frame=1049637 fps=4280 q=-1.0 size=17422848kB time=04:51:25.39 bitrate=8162.7kbits/s speed=71.3x    frame=1051428 fps=4279 q=-1.0 size=17460224kB time=04:51:55.23 bitrate=8166.3kbits/s speed=71.3x    frame=1053111 fps=4277 q=-1.0 size=17495040kB time=04:52:23.24 bitrate=8169.5kbits/s speed=71.2x    frame=1054737 fps=4275 q=-1.0 size=17528832kB time=04:52:50.33 bitrate=8172.7kbits/s speed=71.2x    frame=1056513 fps=4273 q=-1.0 size=17565696kB time=04:53:19.91 bitrate=8176.1kbits/s speed=71.2x    frame=1058189 fps=4272 q=-1.0 size=17600512kB time=04:53:47.81 bitrate=8179.3kbits/s speed=71.2x    frame=1059985 fps=4270 q=-1.0 size=17633792kB time=04:54:17.71 bitrate=8180.9kbits/s speed=71.1x    frame=1061741 fps=4269 q=-1.0 size=17670144kB time=04:54:46.96 bitrate=8184.2kbits/s speed=71.1x    frame=1063857 fps=4269 q=-1.0 size=17705472kB time=04:55:22.21 bitrate=8184.3kbits/s speed=71.1x    frame=1065550 fps=4267 q=-1.0 size=17740544kB time=04:55:50.40 bitrate=8187.5kbits/s speed=71.1x    frame=1067338 fps=4265 q=-1.0 size=17777664kB time=04:56:20.21 bitrate=8190.8kbits/s speed=71.1x    frame=1068975 fps=4263 q=-1.0 size=17811712kB time=04:56:47.48 bitrate=8193.9kbits/s speed=  71x    frame=1070615 fps=4262 q=-1.0 size=17845760kB time=04:57:14.78 bitrate=8197.0kbits/s speed=  71x    frame=1072353 fps=4260 q=-1.0 size=17881856kB time=04:57:43.75 bitrate=8200.3kbits/s speed=  71x    frame=1073990 fps=4258 q=-1.0 size=17915904kB time=04:58:11.01 bitrate=8203.4kbits/s speed=70.9x    frame=1075758 fps=4257 q=-1.0 size=17952512kB time=04:58:40.46 bitrate=8206.6kbits/s speed=70.9x    frame=1077806 fps=4256 q=-1.0 size=17988352kB time=04:59:14.58 bitrate=8207.4kbits/s speed=70.9x    frame=1079386 fps=4254 q=-1.0 size=18021376kB time=04:59:40.89 bitrate=8210.4kbits/s speed=70.9x    frame=1081536 fps=4254 q=-1.0 size=18056448kB time=05:00:16.71 bitrate=8210.1kbits/s speed=70.9x    frame=1083226 fps=4252 q=-1.0 size=18091520kB time=05:00:44.84 bitrate=8213.2kbits/s speed=70.8x    frame=1084786 fps=4250 q=-1.0 size=18124032kB time=05:01:10.79 bitrate=8216.1kbits/s speed=70.8x    frame=1086455 fps=4248 q=-1.0 size=18158336kB time=05:01:38.62 bitrate=8219.0kbits/s speed=70.8x    frame=1088298 fps=4247 q=-1.0 size=18192384kB time=05:02:09.32 bitrate=8220.5kbits/s speed=70.8x    frame=1090262 fps=4247 q=-1.0 size=18227456kB time=05:02:42.01 bitrate=8221.5kbits/s speed=70.7x    frame=1091894 fps=4245 q=-1.0 size=18261248kB time=05:03:09.19 bitrate=8224.5kbits/s speed=70.7x    frame=1093604 fps=4243 q=-1.0 size=18296576kB time=05:03:37.69 bitrate=8227.5kbits/s speed=70.7x    frame=1095334 fps=4242 q=-1.0 size=18332416kB time=05:04:06.51 bitrate=8230.6kbits/s speed=70.7x    frame=1096939 fps=4240 q=-1.0 size=18365952kB time=05:04:33.24 bitrate=8233.6kbits/s speed=70.6x    frame=1098615 fps=4238 q=-1.0 size=18400768kB time=05:05:01.12 bitrate=8236.6kbits/s speed=70.6x    frame=1100310 fps=4236 q=-1.0 size=18435840kB time=05:05:29.37 bitrate=8239.6kbits/s speed=70.6x    frame=1101839 fps=4234 q=-1.0 size=18467584kB time=05:05:54.85 bitrate=8242.3kbits/s speed=70.5x    frame=1103510 fps=4232 q=-1.0 size=18502912kB time=05:06:22.67 bitrate=8245.6kbits/s speed=70.5x    frame=1105254 fps=4231 q=-1.0 size=18538752kB time=05:06:51.75 bitrate=8248.5kbits/s speed=70.5x    frame=1106781 fps=4229 q=-1.0 size=18570496kB time=05:07:17.19 bitrate=8251.2kbits/s speed=70.4x    frame=1108463 fps=4227 q=-1.0 size=18605568kB time=05:07:45.20 bitrate=8254.3kbits/s speed=70.4x    frame=1110208 fps=4226 q=-1.0 size=18641664kB time=05:08:14.24 bitrate=8257.3kbits/s speed=70.4x    frame=1111766 fps=4223 q=-1.0 size=18673664kB time=05:08:40.18 bitrate=8259.9kbits/s speed=70.4x    frame=1113704 fps=4223 q=-1.0 size=18708480kB time=05:09:12.46 bitrate=8260.9kbits/s speed=70.3x    frame=1115441 fps=4221 q=-1.0 size=18744320kB time=05:09:41.40 bitrate=8263.8kbits/s speed=70.3x    frame=1117501 fps=4221 q=-1.0 size=18778112kB time=05:10:15.75 bitrate=8263.4kbits/s speed=70.3x    frame=1119267 fps=4220 q=-1.0 size=18814720kB time=05:10:45.13 bitrate=8266.5kbits/s speed=70.3x    frame=1120944 fps=4218 q=-1.0 size=18849536kB time=05:11:13.08 bitrate=8269.4kbits/s speed=70.3x    frame=1122597 fps=4216 q=-1.0 size=18883840kB time=05:11:40.62 bitrate=8272.3kbits/s speed=70.2x    frame=1124317 fps=4215 q=-1.0 size=18919680kB time=05:12:09.25 bitrate=8275.3kbits/s speed=70.2x    frame=1126013 fps=4213 q=-1.0 size=18955008kB time=05:12:37.51 bitrate=8278.3kbits/s speed=70.2x    frame=1127615 fps=4212 q=-1.0 size=18988288kB time=05:13:04.17 bitrate=8281.0kbits/s speed=70.2x    frame=1129398 fps=4210 q=-1.0 size=19025152kB time=05:13:33.83 bitrate=8284.0kbits/s speed=70.1x    frame=1131016 fps=4209 q=-1.0 size=19058944kB time=05:14:00.80 bitrate=8286.8kbits/s speed=70.1x    frame=1132641 fps=4207 q=-1.0 size=19092736kB time=05:14:27.87 bitrate=8289.6kbits/s speed=70.1x    frame=1134312 fps=4205 q=-1.0 size=19127296kB time=05:14:55.66 bitrate=8292.4kbits/s speed=  70x    frame=1135941 fps=4203 q=-1.0 size=19161088kB time=05:15:22.82 bitrate=8295.1kbits/s speed=  70x    frame=1137610 fps=4202 q=-1.0 size=19195904kB time=05:15:50.63 bitrate=8298.0kbits/s speed=  70x    frame=1139331 fps=4200 q=-1.0 size=19231488kB time=05:16:19.25 bitrate=8300.9kbits/s speed=  70x    frame=1140946 fps=4199 q=-1.0 size=19265024kB time=05:16:46.19 bitrate=8303.6kbits/s speed=69.9x    frame=1142548 fps=4197 q=-1.0 size=19298304kB time=05:17:12.89 bitrate=8306.2kbits/s speed=69.9x    frame=1144273 fps=4195 q=-1.0 size=19334144kB time=05:17:41.59 bitrate=8309.1kbits/s speed=69.9x    frame=1145862 fps=4193 q=-1.0 size=19367168kB time=05:18:08.09 bitrate=8311.8kbits/s speed=69.9x    frame=1147569 fps=4192 q=-1.0 size=19402752kB time=05:18:36.50 bitrate=8314.7kbits/s speed=69.8x    frame=1149274 fps=4191 q=-1.0 size=19438080kB time=05:19:04.89 bitrate=8317.5kbits/s speed=69.8x    frame=1151058 fps=4189 q=-1.0 size=19470080kB time=05:19:34.64 bitrate=8318.2kbits/s speed=69.8x    frame=1152607 fps=4188 q=-1.0 size=19501824kB time=05:20:00.45 bitrate=8320.6kbits/s speed=69.8x    frame=1154607 fps=4187 q=-1.0 size=19535872kB time=05:20:33.77 bitrate=8320.7kbits/s speed=69.8x    frame=1156284 fps=4186 q=-1.0 size=19570688kB time=05:21:01.70 bitrate=8323.4kbits/s speed=69.7x    frame=1157806 fps=4184 q=-1.0 size=19602176kB time=05:21:27.05 bitrate=8325.8kbits/s speed=69.7x    frame=1159480 fps=4182 q=-1.0 size=19636992kB time=05:21:54.95 bitrate=8328.6kbits/s speed=69.7x    frame=1161217 fps=4181 q=-1.0 size=19673088kB time=05:22:23.88 bitrate=8331.4kbits/s speed=69.6x    frame=1162755 fps=4179 q=-1.0 size=19704832kB time=05:22:49.47 bitrate=8333.8kbits/s speed=69.6x    frame=1164475 fps=4177 q=-1.0 size=19740672kB time=05:23:18.11 bitrate=8336.7kbits/s speed=69.6x    frame=1166217 fps=4176 q=-1.0 size=19776768kB time=05:23:47.16 bitrate=8339.4kbits/s speed=69.6x    frame=1167706 fps=4174 q=-1.0 size=19807744kB time=05:24:11.95 bitrate=8341.8kbits/s speed=69.5x    frame=1169393 fps=4173 q=-1.0 size=19842816kB time=05:24:40.02 bitrate=8344.6kbits/s speed=69.5x    frame=1171121 fps=4171 q=-1.0 size=19878656kB time=05:25:08.82 bitrate=8347.3kbits/s speed=69.5x    frame=1172719 fps=4170 q=-1.0 size=19911936kB time=05:25:35.45 bitrate=8349.9kbits/s speed=69.5x    frame=1174450 fps=4168 q=-1.0 size=19947776kB time=05:26:04.27 bitrate=8352.6kbits/s speed=69.4x    frame=1176241 fps=4167 q=-1.0 size=19985152kB time=05:26:34.07 bitrate=8355.5kbits/s speed=69.4x    frame=1177783 fps=4165 q=-1.0 size=20017152kB time=05:26:59.78 bitrate=8357.9kbits/s speed=69.4x    frame=1179592 fps=4164 q=-1.0 size=20055040kB time=05:27:29.92 bitrate=8360.9kbits/s speed=69.4x    frame=1181344 fps=4163 q=-1.0 size=20091136kB time=05:27:59.08 bitrate=8363.5kbits/s speed=69.4x    frame=1182973 fps=4162 q=-1.0 size=20125184kB time=05:28:26.24 bitrate=8366.2kbits/s speed=69.3x    frame=1184586 fps=4160 q=-1.0 size=20158464kB time=05:28:53.12 bitrate=8368.6kbits/s speed=69.3x    frame=1186404 fps=4159 q=-1.0 size=20190720kB time=05:29:23.38 bitrate=8369.1kbits/s speed=69.3x    frame=1187900 fps=4157 q=-1.0 size=20221952kB time=05:29:48.33 bitrate=8371.5kbits/s speed=69.2x    frame=1189937 fps=4157 q=-1.0 size=20255488kB time=05:30:22.24 bitrate=8371.0kbits/s speed=69.2x    frame=1191538 fps=4155 q=-1.0 size=20288512kB time=05:30:48.90 bitrate=8373.4kbits/s speed=69.2x    frame=1193079 fps=4153 q=-1.0 size=20320512kB time=05:31:14.57 bitrate=8375.8kbits/s speed=69.2x    frame=1194638 fps=4152 q=-1.0 size=20353024kB time=05:31:40.55 bitrate=8378.3kbits/s speed=69.2x    frame=1196227 fps=4150 q=-1.0 size=20385792kB time=05:32:07.00 bitrate=8380.6kbits/s speed=69.1x    frame=1197955 fps=4149 q=-1.0 size=20421888kB time=05:32:35.77 bitrate=8383.3kbits/s speed=69.1x    frame=1199647 fps=4147 q=-1.0 size=20456960kB time=05:33:03.98 bitrate=8385.9kbits/s speed=69.1x    frame=1201330 fps=4146 q=-1.0 size=20492032kB time=05:33:32.02 bitrate=8388.5kbits/s speed=69.1x    frame=1203021 fps=4145 q=-1.0 size=20527104kB time=05:34:00.16 bitrate=8391.1kbits/s speed=  69x    frame=1204769 fps=4144 q=-1.0 size=20563456kB time=05:34:29.30 bitrate=8393.7kbits/s speed=  69x    frame=1206458 fps=4142 q=-1.0 size=20598528kB time=05:34:57.43 bitrate=8396.3kbits/s speed=  69x    frame=1208113 fps=4141 q=-1.0 size=20632832kB time=05:35:24.98 bitrate=8398.7kbits/s speed=  69x    frame=1209761 fps=4139 q=-1.0 size=20667136kB time=05:35:52.44 bitrate=8401.2kbits/s speed=  69x    frame=1211553 fps=4138 q=-1.0 size=20704256kB time=05:36:22.29 bitrate=8403.9kbits/s speed=68.9x    frame=1213495 fps=4138 q=-1.0 size=20739840kB time=05:36:54.64 bitrate=8404.8kbits/s speed=68.9x    frame=1215229 fps=4137 q=-1.0 size=20775680kB time=05:37:23.52 bitrate=8407.3kbits/s speed=68.9x    frame=1216858 fps=4135 q=-1.0 size=20809472kB time=05:37:50.64 bitrate=8409.8kbits/s speed=68.9x    frame=1218985 fps=4135 q=-1.0 size=20845312kB time=05:38:26.06 bitrate=8409.5kbits/s speed=68.9x    frame=1220705 fps=4134 q=-1.0 size=20880896kB time=05:38:54.71 bitrate=8412.0kbits/s speed=68.9x    frame=1222295 fps=4133 q=-1.0 size=20914176kB time=05:39:21.19 bitrate=8414.5kbits/s speed=68.8x    frame=1223969 fps=4131 q=-1.0 size=20948736kB time=05:39:49.10 bitrate=8416.9kbits/s speed=68.8x    frame=1225686 fps=4130 q=-1.0 size=20984576kB time=05:40:17.67 bitrate=8419.5kbits/s speed=68.8x    frame=1227410 fps=4129 q=-1.0 size=21020416kB time=05:40:46.40 bitrate=8422.0kbits/s speed=68.8x    frame=1229035 fps=4127 q=-1.0 size=21054208kB time=05:41:13.47 bitrate=8424.4kbits/s speed=68.8x    frame=1230794 fps=4126 q=-1.0 size=21090816kB time=05:41:42.75 bitrate=8427.0kbits/s speed=68.7x    frame=1232366 fps=4125 q=-1.0 size=21123328kB time=05:42:08.91 bitrate=8429.2kbits/s speed=68.7x    frame=1234300 fps=4124 q=-1.0 size=21158912kB time=05:42:41.15 bitrate=8430.2kbits/s speed=68.7x    frame=1236337 fps=4124 q=-1.0 size=21193728kB time=05:43:15.05 bitrate=8430.1kbits/s speed=68.7x    frame=1237889 fps=4123 q=-1.0 size=21225984kB time=05:43:40.92 bitrate=8432.4kbits/s speed=68.7x    frame=1239556 fps=4121 q=-1.0 size=21260544kB time=05:44:08.66 bitrate=8434.8kbits/s speed=68.7x    frame=1241232 fps=4120 q=-1.0 size=21295360kB time=05:44:36.58 bitrate=8437.2kbits/s speed=68.6x    frame=1242765 fps=4118 q=-1.0 size=21327104kB time=05:45:02.13 bitrate=8439.3kbits/s speed=68.6x    frame=1244452 fps=4117 q=-1.0 size=21362176kB time=05:45:30.23 bitrate=8441.7kbits/s speed=68.6x    frame=1246116 fps=4116 q=-1.0 size=21396736kB time=05:45:57.96 bitrate=8444.1kbits/s speed=68.6x    frame=1247730 fps=4114 q=-1.0 size=21430528kB time=05:46:24.81 bitrate=8446.5kbits/s speed=68.5x    frame=1249390 fps=4113 q=-1.0 size=21465344kB time=05:46:52.49 bitrate=8449.0kbits/s speed=68.5x    frame=1251009 fps=4111 q=-1.0 size=21498624kB time=05:47:19.48 bitrate=8451.1kbits/s speed=68.5x    frame=1252591 fps=4110 q=-1.0 size=21531392kB time=05:47:45.83 bitrate=8453.3kbits/s speed=68.5x    frame=1254285 fps=4109 q=-1.0 size=21566720kB time=05:48:14.04 bitrate=8455.7kbits/s speed=68.4x    frame=1255944 fps=4107 q=-1.0 size=21601024kB time=05:48:41.64 bitrate=8458.0kbits/s speed=68.4x    frame=1257514 fps=4106 q=-1.0 size=21633792kB time=05:49:07.83 bitrate=8460.3kbits/s speed=68.4x    frame=1259201 fps=4105 q=-1.0 size=21668864kB time=05:49:35.94 bitrate=8462.6kbits/s speed=68.4x    frame=1260886 fps=4103 q=-1.0 size=21703680kB time=05:50:04.00 bitrate=8464.9kbits/s speed=68.4x    frame=1262506 fps=4102 q=-1.0 size=21737216kB time=05:50:30.98 bitrate=8467.1kbits/s speed=68.3x    frame=1264523 fps=4102 q=-1.0 size=21773824kB time=05:51:04.59 bitrate=8467.8kbits/s speed=68.3x    frame=1266152 fps=4100 q=-1.0 size=21807616kB time=05:51:31.69 bitrate=8470.1kbits/s speed=68.3x    frame=1268241 fps=4101 q=-1.0 size=21842176kB time=05:52:06.48 bitrate=8469.5kbits/s speed=68.3x    frame=1269933 fps=4099 q=-1.0 size=21877248kB time=05:52:34.68 bitrate=8471.8kbits/s speed=68.3x    frame=1271638 fps=4098 q=-1.0 size=21912576kB time=05:53:03.11 bitrate=8474.1kbits/s speed=68.3x    frame=1273371 fps=4097 q=-1.0 size=21948672kB time=05:53:31.97 bitrate=8476.5kbits/s speed=68.3x    frame=1275141 fps=4096 q=-1.0 size=21985536kB time=05:54:01.45 bitrate=8479.0kbits/s speed=68.2x    frame=1276760 fps=4095 q=-1.0 size=22019328kB time=05:54:28.42 bitrate=8481.2kbits/s speed=68.2x    frame=1278433 fps=4094 q=-1.0 size=22053888kB time=05:54:56.30 bitrate=8483.4kbits/s speed=68.2x    frame=1280160 fps=4093 q=-1.0 size=22089728kB time=05:55:25.05 bitrate=8485.7kbits/s speed=68.2x    frame=1281828 fps=4092 q=-1.0 size=22124288kB time=05:55:52.84 bitrate=8488.0kbits/s speed=68.2x    frame=1283446 fps=4090 q=-1.0 size=22158080kB time=05:56:19.80 bitrate=8490.2kbits/s speed=68.1x    frame=1285180 fps=4089 q=-1.0 size=22194176kB time=05:56:48.72 bitrate=8492.6kbits/s speed=68.1x    frame=1286815 fps=4088 q=-1.0 size=22227968kB time=05:57:15.94 bitrate=8494.7kbits/s speed=68.1x    frame=1288376 fps=4086 q=-1.0 size=22260736kB time=05:57:41.96 bitrate=8496.9kbits/s speed=68.1x    frame=1290145 fps=4085 q=-1.0 size=22297344kB time=05:58:11.42 bitrate=8499.2kbits/s speed=68.1x    frame=1291794 fps=4084 q=-1.0 size=22331648kB time=05:58:38.88 bitrate=8501.4kbits/s speed=  68x    frame=1293449 fps=4083 q=-1.0 size=22365952kB time=05:59:06.45 bitrate=8503.6kbits/s speed=  68x    frame=1295067 fps=4082 q=-1.0 size=22399744kB time=05:59:33.42 bitrate=8505.8kbits/s speed=  68x    frame=1296839 fps=4081 q=-1.0 size=22431488kB time=06:00:02.92 bitrate=8506.2kbits/s speed=  68x    frame=1298838 fps=4081 q=-1.0 size=22464768kB time=06:00:36.21 bitrate=8505.7kbits/s speed=  68x    frame=1300593 fps=4080 q=-1.0 size=22501376kB time=06:01:05.41 bitrate=8508.1kbits/s speed=  68x    frame=1302172 fps=4078 q=-1.0 size=22534144kB time=06:01:31.72 bitrate=8510.1kbits/s speed=67.9x    frame=1303946 fps=4077 q=-1.0 size=22571008kB time=06:02:01.28 bitrate=8512.5kbits/s speed=67.9x    frame=1305519 fps=4076 q=-1.0 size=22603776kB time=06:02:27.47 bitrate=8514.6kbits/s speed=67.9x    frame=1307284 fps=4075 q=-1.0 size=22640128kB time=06:02:56.87 bitrate=8516.7kbits/s speed=67.9x    frame=1309033 fps=4074 q=-1.0 size=22676736kB time=06:03:26.00 bitrate=8519.1kbits/s speed=67.9x    frame=1310689 fps=4073 q=-1.0 size=22711296kB time=06:03:53.58 bitrate=8521.3kbits/s speed=67.8x    frame=1312458 fps=4072 q=-1.0 size=22747904kB time=06:04:23.05 bitrate=8523.6kbits/s speed=67.8x    frame=1314246 fps=4071 q=-1.0 size=22785280kB time=06:04:52.82 bitrate=8525.9kbits/s speed=67.8x    frame=1315835 fps=4070 q=-1.0 size=22818048kB time=06:05:19.26 bitrate=8527.9kbits/s speed=67.8x    frame=1317609 fps=4069 q=-1.0 size=22854912kB time=06:05:48.80 bitrate=8530.2kbits/s speed=67.8x    frame=1319350 fps=4068 q=-1.0 size=22891008kB time=06:06:17.80 bitrate=8532.4kbits/s speed=67.8x    frame=1321075 fps=4067 q=-1.0 size=22927104kB time=06:06:46.53 bitrate=8534.7kbits/s speed=67.8x    frame=1322862 fps=4067 q=-1.0 size=22964224kB time=06:07:16.28 bitrate=8537.0kbits/s speed=67.7x    frame=1324540 fps=4066 q=-1.0 size=22998784kB time=06:07:44.26 bitrate=8539.0kbits/s speed=67.7x    frame=1326175 fps=4064 q=-1.0 size=23032832kB time=06:08:11.48 bitrate=8541.1kbits/s speed=67.7x    frame=1327887 fps=4063 q=-1.0 size=23068416kB time=06:08:40.04 bitrate=8543.2kbits/s speed=67.7x    frame=1329687 fps=4063 q=-1.0 size=23106048kB time=06:09:10.02 bitrate=8545.6kbits/s speed=67.7x    frame=1331442 fps=4062 q=-1.0 size=23142144kB time=06:09:39.25 bitrate=8547.6kbits/s speed=67.7x    frame=1333311 fps=4061 q=-1.0 size=23176192kB time=06:10:10.38 bitrate=8548.2kbits/s speed=67.7x    frame=1335030 fps=4060 q=-1.0 size=23211776kB time=06:10:39.00 bitrate=8550.3kbits/s speed=67.6x    frame=1337025 fps=4060 q=-1.0 size=23245824kB time=06:11:12.25 bitrate=8550.1kbits/s speed=67.6x    frame=1338701 fps=4059 q=-1.0 size=23280384kB time=06:11:40.18 bitrate=8552.1kbits/s speed=67.6x    frame=1340342 fps=4058 q=-1.0 size=23314688kB time=06:12:07.48 bitrate=8554.2kbits/s speed=67.6x    frame=1341790 fps=4056 q=-1.0 size=23344896kB time=06:12:31.62 bitrate=8556.0kbits/s speed=67.6x    frame=1343401 fps=4055 q=-1.0 size=23378176kB time=06:12:58.45 bitrate=8558.0kbits/s speed=67.5x    frame=1345181 fps=4054 q=-1.0 size=23415296kB time=06:13:28.13 bitrate=8560.2kbits/s speed=67.5x    frame=1346843 fps=4053 q=-1.0 size=23449600kB time=06:13:55.80 bitrate=8562.2kbits/s speed=67.5x    frame=1348532 fps=4052 q=-1.0 size=23484928kB time=06:14:23.93 bitrate=8564.3kbits/s speed=67.5x    frame=1350071 fps=4051 q=-1.0 size=23516672kB time=06:14:49.53 bitrate=8566.1kbits/s speed=67.5x    frame=1351817 fps=4050 q=-1.0 size=23553280kB time=06:15:18.61 bitrate=8568.4kbits/s speed=67.5x    frame=1353500 fps=4049 q=-1.0 size=23588096kB time=06:15:46.68 bitrate=8570.4kbits/s speed=67.4x    frame=1355057 fps=4047 q=-1.0 size=23620352kB time=06:16:12.58 bitrate=8572.3kbits/s speed=67.4x    frame=1356730 fps=4046 q=-1.0 size=23654912kB time=06:16:40.45 bitrate=8574.2kbits/s speed=67.4x    frame=1358381 fps=4045 q=-1.0 size=23689472kB time=06:17:07.94 bitrate=8576.3kbits/s speed=67.4x    frame=1359886 fps=4044 q=-1.0 size=23720704kB time=06:17:33.00 bitrate=8578.1kbits/s speed=67.4x    frame=1361567 fps=4043 q=-1.0 size=23755776kB time=06:18:01.01 bitrate=8580.2kbits/s speed=67.3x    frame=1363191 fps=4041 q=-1.0 size=23789312kB time=06:18:28.09 bitrate=8582.1kbits/s speed=67.3x    frame=1364704 fps=4040 q=-1.0 size=23820800kB time=06:18:53.27 bitrate=8583.9kbits/s speed=67.3x    frame=1366414 fps=4039 q=-1.0 size=23856384kB time=06:19:21.77 bitrate=8586.0kbits/s speed=67.3x    frame=1368320 fps=4039 q=-1.0 size=23889920kB time=06:19:53.51 bitrate=8586.0kbits/s speed=67.3x    frame=1369859 fps=4037 q=-1.0 size=23922176kB time=06:20:19.14 bitrate=8588.0kbits/s speed=67.3x    frame=1371987 fps=4037 q=-1.0 size=23957248kB time=06:20:54.61 bitrate=8587.2kbits/s speed=67.3x    frame=1373626 fps=4036 q=-1.0 size=23991296kB time=06:21:21.88 bitrate=8589.2kbits/s speed=67.2x    frame=1375163 fps=4035 q=-1.0 size=24023296kB time=06:21:47.49 bitrate=8591.0kbits/s speed=67.2x    frame=1376887 fps=4034 q=-1.0 size=24059136kB time=06:22:16.21 bitrate=8593.1kbits/s speed=67.2x    frame=1378486 fps=4033 q=-1.0 size=24092416kB time=06:22:42.83 bitrate=8595.0kbits/s speed=67.2x    frame=1380301 fps=4032 q=-1.0 size=24130048kB time=06:23:13.07 bitrate=8597.1kbits/s speed=67.2x    frame=1382106 fps=4032 q=-1.0 size=24167424kB time=06:23:43.13 bitrate=8599.2kbits/s speed=67.2x    frame=1383827 fps=4031 q=-1.0 size=24203264kB time=06:24:11.81 bitrate=8601.2kbits/s speed=67.1x    frame=1385535 fps=4030 q=-1.0 size=24238592kB time=06:24:40.22 bitrate=8603.1kbits/s speed=67.1x    frame=1387352 fps=4029 q=-1.0 size=24276480kB time=06:25:10.51 bitrate=8605.3kbits/s speed=67.1x    frame=1389035 fps=4028 q=-1.0 size=24311552kB time=06:25:38.54 bitrate=8607.3kbits/s speed=67.1x    frame=1390731 fps=4027 q=-1.0 size=24346624kB time=06:26:06.81 bitrate=8609.2kbits/s speed=67.1x    frame=1392579 fps=4027 q=-1.0 size=24384768kB time=06:26:37.55 bitrate=8611.3kbits/s speed=67.1x    frame=1394524 fps=4027 q=-1.0 size=24419328kB time=06:27:09.97 bitrate=8611.4kbits/s speed=67.1x    frame=1396708 fps=4027 q=-1.0 size=24458240kB time=06:27:46.31 bitrate=8611.7kbits/s speed=67.1x    frame=1398516 fps=4027 q=-1.0 size=24495616kB time=06:28:16.46 bitrate=8613.7kbits/s speed=67.1x    frame=1400169 fps=4026 q=-1.0 size=24529920kB time=06:28:43.99 bitrate=8615.6kbits/s speed=67.1x    frame=1401957 fps=4025 q=-1.0 size=24567552kB time=06:29:13.78 bitrate=8617.8kbits/s speed=  67x    frame=1403805 fps=4024 q=-1.0 size=24605440kB time=06:29:44.57 bitrate=8619.7kbits/s speed=  67x    frame=1405389 fps=4023 q=-1.0 size=24638720kB time=06:30:10.92 bitrate=8621.6kbits/s speed=  67x    frame=1407127 fps=4022 q=-1.0 size=24674816kB time=06:30:39.87 bitrate=8623.6kbits/s speed=  67x    frame=1408933 fps=4022 q=-1.0 size=24712448kB time=06:31:09.97 bitrate=8625.7kbits/s speed=  67x    frame=1410650 fps=4021 q=-1.0 size=24748032kB time=06:31:38.55 bitrate=8627.6kbits/s speed=  67x    frame=1412462 fps=4020 q=-1.0 size=24785920kB time=06:32:08.75 bitrate=8629.7kbits/s speed=  67x    frame=1414299 fps=4020 q=-1.0 size=24823552kB time=06:32:39.37 bitrate=8631.6kbits/s speed=  67x    frame=1415889 fps=4019 q=-1.0 size=24856832kB time=06:33:05.84 bitrate=8633.4kbits/s speed=66.9x    frame=1417720 fps=4018 q=-1.0 size=24894720kB time=06:33:36.37 bitrate=8635.4kbits/s speed=66.9x    frame=1419580 fps=4018 q=-1.0 size=24933376kB time=06:34:07.35 bitrate=8637.5kbits/s speed=66.9x    frame=1421151 fps=4017 q=-1.0 size=24966144kB time=06:34:33.48 bitrate=8639.3kbits/s speed=66.9x    frame=1422906 fps=4016 q=-1.0 size=25002496kB time=06:35:02.71 bitrate=8641.2kbits/s speed=66.9x    frame=1424639 fps=4015 q=-1.0 size=25038592kB time=06:35:31.61 bitrate=8643.2kbits/s speed=66.9x    frame=1426341 fps=4014 q=-1.0 size=25074176kB time=06:35:59.97 bitrate=8645.1kbits/s speed=66.9x    frame=1428366 fps=4014 q=-1.0 size=25110528kB time=06:36:33.66 bitrate=8645.4kbits/s speed=66.9x    frame=1430094 fps=4013 q=-1.0 size=25146624kB time=06:37:02.44 bitrate=8647.4kbits/s speed=66.9x    frame=1432177 fps=4014 q=-1.0 size=25181696kB time=06:37:37.14 bitrate=8646.8kbits/s speed=66.9x    frame=1434019 fps=4013 q=-1.0 size=25219840kB time=06:38:07.84 bitrate=8648.8kbits/s speed=66.9x    frame=1435639 fps=4012 q=-1.0 size=25253632kB time=06:38:34.80 bitrate=8650.6kbits/s speed=66.8x    frame=1437463 fps=4012 q=-1.0 size=25291520kB time=06:39:05.20 bitrate=8652.6kbits/s speed=66.8x    frame=1439277 fps=4011 q=-1.0 size=25329152kB time=06:39:35.39 bitrate=8654.6kbits/s speed=66.8x    frame=1441011 fps=4010 q=-1.0 size=25365248kB time=06:40:04.30 bitrate=8656.5kbits/s speed=66.8x    frame=1442816 fps=4010 q=-1.0 size=25402880kB time=06:40:34.36 bitrate=8658.5kbits/s speed=66.8x    frame=1444633 fps=4009 q=-1.0 size=25440768kB time=06:41:04.62 bitrate=8660.5kbits/s speed=66.8x    frame=1446295 fps=4008 q=-1.0 size=25474816kB time=06:41:32.30 bitrate=8662.1kbits/s speed=66.8x    frame=1447923 fps=4007 q=-1.0 size=25508608kB time=06:41:59.43 bitrate=8663.8kbits/s speed=66.8x    frame=1449674 fps=4007 q=-1.0 size=25544960kB time=06:42:28.60 bitrate=8665.7kbits/s speed=66.7x    frame=1451282 fps=4005 q=-1.0 size=25578240kB time=06:42:55.39 bitrate=8667.4kbits/s speed=66.7x    frame=1453029 fps=4005 q=-1.0 size=25614848kB time=06:43:24.50 bitrate=8669.3kbits/s speed=66.7x    frame=1454761 fps=4004 q=-1.0 size=25650944kB time=06:43:53.32 bitrate=8671.2kbits/s speed=66.7x    frame=1456497 fps=4003 q=-1.0 size=25686784kB time=06:44:22.22 bitrate=8673.0kbits/s speed=66.7x    frame=1458166 fps=4002 q=-1.0 size=25721344kB time=06:44:50.03 bitrate=8674.7kbits/s speed=66.7x    frame=1460107 fps=4002 q=-1.0 size=25757696kB time=06:45:22.37 bitrate=8675.4kbits/s speed=66.7x    frame=1461729 fps=4001 q=-1.0 size=25791232kB time=06:45:49.38 bitrate=8677.1kbits/s speed=66.6x    frame=1463853 fps=4001 q=-1.0 size=25827840kB time=06:46:24.74 bitrate=8676.8kbits/s speed=66.7x    frame=1465613 fps=4001 q=-1.0 size=25864192kB time=06:46:54.09 bitrate=8678.6kbits/s speed=66.6x    frame=1467328 fps=4000 q=-1.0 size=25900032kB time=06:47:22.67 bitrate=8680.4kbits/s speed=66.6x    frame=1469092 fps=3999 q=-1.0 size=25936640kB time=06:47:52.05 bitrate=8682.3kbits/s speed=66.6x    frame=1470852 fps=3999 q=-1.0 size=25973248kB time=06:48:21.36 bitrate=8684.1kbits/s speed=66.6x    frame=1472585 fps=3998 q=-1.0 size=26009344kB time=06:48:50.23 bitrate=8686.0kbits/s speed=66.6x    frame=1474363 fps=3997 q=-1.0 size=26046208kB time=06:49:19.85 bitrate=8687.8kbits/s speed=66.6x    frame=1476171 fps=3997 q=-1.0 size=26083840kB time=06:49:49.98 bitrate=8689.7kbits/s speed=66.6x    frame=1477888 fps=3996 q=-1.0 size=26119424kB time=06:50:18.54 bitrate=8691.4kbits/s speed=66.6x    frame=1479674 fps=3995 q=-1.0 size=26156544kB time=06:50:48.28 bitrate=8693.3kbits/s speed=66.6x    frame=1481449 fps=3995 q=-1.0 size=26193408kB time=06:51:17.87 bitrate=8695.1kbits/s speed=66.5x    frame=1483136 fps=3994 q=-1.0 size=26228480kB time=06:51:45.95 bitrate=8696.8kbits/s speed=66.5x    frame=1484803 fps=3993 q=-1.0 size=26263296kB time=06:52:13.74 bitrate=8698.6kbits/s speed=66.5x    frame=1486507 fps=3992 q=-1.0 size=26298368kB time=06:52:42.13 bitrate=8700.2kbits/s speed=66.5x    frame=1488325 fps=3992 q=-1.0 size=26331136kB time=06:53:12.42 bitrate=8700.4kbits/s speed=66.5x    frame=1490045 fps=3991 q=-1.0 size=26366464kB time=06:53:41.07 bitrate=8702.0kbits/s speed=66.5x    frame=1492340 fps=3992 q=-1.0 size=26403072kB time=06:54:19.31 bitrate=8700.7kbits/s speed=66.5x    frame=1493878 fps=3991 q=-1.0 size=26434816kB time=06:54:44.89 bitrate=8702.2kbits/s speed=66.5x    frame=1495635 fps=3990 q=-1.0 size=26471424kB time=06:55:14.18 bitrate=8704.0kbits/s speed=66.5x    frame=1497393 fps=3989 q=-1.0 size=26508032kB time=06:55:43.43 bitrate=8705.8kbits/s speed=66.5x    frame=1499096 fps=3989 q=-1.0 size=26543360kB time=06:56:11.83 bitrate=8707.5kbits/s speed=66.4x    frame=1500842 fps=3988 q=-1.0 size=26579456kB time=06:56:40.90 bitrate=8709.2kbits/s speed=66.4x    frame=1502630 fps=3987 q=-1.0 size=26616832kB time=06:57:10.68 bitrate=8711.1kbits/s speed=66.4x    frame=1504381 fps=3987 q=-1.0 size=26653184kB time=06:57:39.84 bitrate=8712.9kbits/s speed=66.4x    frame=1506193 fps=3986 q=-1.0 size=26690816kB time=06:58:09.97 bitrate=8714.7kbits/s speed=66.4x    frame=1508011 fps=3986 q=-1.0 size=26728448kB time=06:58:40.26 bitrate=8716.4kbits/s speed=66.4x    frame=1509750 fps=3985 q=-1.0 size=26764544kB time=06:59:09.22 bitrate=8718.2kbits/s speed=66.4x    frame=1511555 fps=3985 q=-1.0 size=26802176kB time=06:59:39.29 bitrate=8720.0kbits/s speed=66.4x    frame=1513329 fps=3984 q=-1.0 size=26839040kB time=07:00:08.83 bitrate=8721.8kbits/s speed=66.4x    frame=1514947 fps=3983 q=-1.0 size=26872832kB time=07:00:35.79 bitrate=8723.4kbits/s speed=66.3x    frame=1516704 fps=3982 q=-1.0 size=26909184kB time=07:01:05.07 bitrate=8725.1kbits/s speed=66.3x    frame=1518490 fps=3982 q=-1.0 size=26946304kB time=07:01:34.79 bitrate=8726.9kbits/s speed=66.3x    frame=1520248 fps=3981 q=-1.0 size=26982656kB time=07:02:04.10 bitrate=8728.5kbits/s speed=66.3x    frame=1522026 fps=3981 q=-1.0 size=27018496kB time=07:02:33.72 bitrate=8729.9kbits/s speed=66.3x    frame=1524049 fps=3981 q=-1.0 size=27056128kB time=07:03:07.39 bitrate=8730.5kbits/s speed=66.3x    frame=1525715 fps=3980 q=-1.0 size=27090432kB time=07:03:35.15 bitrate=8732.0kbits/s speed=66.3x    frame=1527780 fps=3980 q=-1.0 size=27127808kB time=07:04:09.52 bitrate=8732.2kbits/s speed=66.3x    frame=1529577 fps=3980 q=-1.0 size=27164928kB time=07:04:39.48 bitrate=8733.9kbits/s speed=66.3x    frame=1531357 fps=3979 q=-1.0 size=27202304kB time=07:05:09.15 bitrate=8735.7kbits/s speed=66.3x    frame=1533178 fps=3979 q=-1.0 size=27240192kB time=07:05:39.44 bitrate=8737.5kbits/s speed=66.3x    frame=1534930 fps=3978 q=-1.0 size=27276800kB time=07:06:08.62 bitrate=8739.3kbits/s speed=66.3x    frame=1536639 fps=3977 q=-1.0 size=27311872kB time=07:06:37.09 bitrate=8740.8kbits/s speed=66.3x    frame=1538422 fps=3977 q=-1.0 size=27348480kB time=07:07:06.79 bitrate=8742.4kbits/s speed=66.2x    frame=1540173 fps=3976 q=-1.0 size=27384832kB time=07:07:35.99 bitrate=8744.0kbits/s speed=66.2x    frame=1542015 fps=3976 q=-1.0 size=27423232kB time=07:08:06.66 bitrate=8745.8kbits/s speed=66.2x    frame=1543851 fps=3975 q=-1.0 size=27461376kB time=07:08:37.26 bitrate=8747.6kbits/s speed=66.2x    frame=1545588 fps=3975 q=-1.0 size=27497472kB time=07:09:06.20 bitrate=8749.2kbits/s speed=66.2x    frame=1547373 fps=3974 q=-1.0 size=27534336kB time=07:09:35.90 bitrate=8750.9kbits/s speed=66.2x    frame=1549096 fps=3973 q=-1.0 size=27570432kB time=07:10:04.59 bitrate=8752.6kbits/s speed=66.2x    frame=1550714 fps=3972 q=-1.0 size=27603968kB time=07:10:31.54 bitrate=8754.1kbits/s speed=66.2x    frame=1552328 fps=3972 q=-1.0 size=27637504kB time=07:10:58.41 bitrate=8755.6kbits/s speed=66.2x    frame=1554077 fps=3971 q=-1.0 size=27674368kB time=07:11:27.57 bitrate=8757.4kbits/s speed=66.1x    frame=1556154 fps=3971 q=-1.0 size=27713280kB time=07:12:02.16 bitrate=8758.0kbits/s speed=66.2x    frame=1558296 fps=3972 q=-1.0 size=27749632kB time=07:12:37.85 bitrate=8757.5kbits/s speed=66.2x    frame=1560074 fps=3971 q=-1.0 size=27786240kB time=07:13:07.48 bitrate=8759.0kbits/s speed=66.1x    frame=1561765 fps=3970 q=-1.0 size=27821312kB time=07:13:35.64 bitrate=8760.6kbits/s speed=66.1x    frame=1563418 fps=3969 q=-1.0 size=27855872kB time=07:14:03.15 bitrate=8762.2kbits/s speed=66.1x    frame=1565210 fps=3969 q=-1.0 size=27892992kB time=07:14:33.03 bitrate=8763.8kbits/s speed=66.1x    frame=1566929 fps=3968 q=-1.0 size=27928832kB time=07:15:01.65 bitrate=8765.5kbits/s speed=66.1x    frame=1568585 fps=3967 q=-1.0 size=27963136kB time=07:15:29.23 bitrate=8767.0kbits/s speed=66.1x    frame=1570317 fps=3967 q=-1.0 size=27999232kB time=07:15:58.09 bitrate=8768.6kbits/s speed=66.1x    frame=1571992 fps=3966 q=-1.0 size=28033792kB time=07:16:26.02 bitrate=8770.1kbits/s speed=66.1x    frame=1573615 fps=3965 q=-1.0 size=28067840kB time=07:16:53.05 bitrate=8771.7kbits/s speed=  66x    frame=1575378 fps=3965 q=-1.0 size=28104448kB time=07:17:22.41 bitrate=8773.3kbits/s speed=  66x    frame=1577015 fps=3964 q=-1.0 size=28138496kB time=07:17:49.67 bitrate=8774.8kbits/s speed=  66x    frame=1578643 fps=3963 q=-1.0 size=28172288kB time=07:18:16.80 bitrate=8776.3kbits/s speed=  66x    frame=1580402 fps=3962 q=-1.0 size=28208896kB time=07:18:46.09 bitrate=8777.9kbits/s speed=  66x    frame=1582016 fps=3961 q=-1.0 size=28242176kB time=07:19:12.99 bitrate=8779.3kbits/s speed=  66x    frame=1583624 fps=3960 q=-1.0 size=28275968kB time=07:19:39.77 bitrate=8780.8kbits/s speed=  66x    frame=1585366 fps=3960 q=-1.0 size=28312064kB time=07:20:08.76 bitrate=8782.4kbits/s speed=  66x    frame=1587005 fps=3959 q=-1.0 size=28345856kB time=07:20:36.10 bitrate=8783.8kbits/s speed=65.9x    frame=1588731 fps=3958 q=-1.0 size=28377600kB time=07:21:04.84 bitrate=8784.1kbits/s speed=65.9x    frame=1590831 fps=3959 q=-1.0 size=28414464kB time=07:21:39.83 bitrate=8783.9kbits/s speed=65.9x    frame=1592456 fps=3958 q=-1.0 size=28447744kB time=07:22:06.87 bitrate=8785.2kbits/s speed=65.9x    frame=1594163 fps=3957 q=-1.0 size=28483584kB time=07:22:35.34 bitrate=8786.8kbits/s speed=65.9x    frame=1595905 fps=3956 q=-1.0 size=28519680kB time=07:23:04.35 bitrate=8788.4kbits/s speed=65.9x    frame=1597475 fps=3955 q=-1.0 size=28552192kB time=07:23:30.46 bitrate=8789.8kbits/s speed=65.9x    frame=1599190 fps=3955 q=-1.0 size=28587776kB time=07:23:59.05 bitrate=8791.3kbits/s speed=65.9x    frame=1600948 fps=3954 q=-1.0 size=28624128kB time=07:24:28.36 bitrate=8792.8kbits/s speed=65.9x    frame=1602595 fps=3953 q=-1.0 size=28658688kB time=07:24:55.76 bitrate=8794.4kbits/s speed=65.9x    frame=1604352 fps=3953 q=-1.0 size=28695296kB time=07:25:25.04 bitrate=8795.9kbits/s speed=65.8x    frame=1606081 fps=3952 q=-1.0 size=28730880kB time=07:25:53.85 bitrate=8797.4kbits/s speed=65.8x    frame=1607686 fps=3951 q=-1.0 size=28764416kB time=07:26:20.58 bitrate=8798.8kbits/s speed=65.8x    frame=1609332 fps=3950 q=-1.0 size=28798720kB time=07:26:47.98 bitrate=8800.3kbits/s speed=65.8x    frame=1611156 fps=3950 q=-1.0 size=28836352kB time=07:27:18.37 bitrate=8801.9kbits/s speed=65.8x    frame=1612701 fps=3949 q=-1.0 size=28868608kB time=07:27:44.09 bitrate=8803.3kbits/s speed=65.8x    frame=1614368 fps=3948 q=-1.0 size=28903168kB time=07:28:11.85 bitrate=8804.7kbits/s speed=65.8x    frame=1616058 fps=3948 q=-1.0 size=28938496kB time=07:28:39.99 bitrate=8806.2kbits/s speed=65.8x    frame=1617647 fps=3947 q=-1.0 size=28971520kB time=07:29:06.46 bitrate=8807.6kbits/s speed=65.7x    frame=1619328 fps=3946 q=-1.0 size=29006336kB time=07:29:34.44 bitrate=8809.1kbits/s speed=65.7x    frame=1621014 fps=3945 q=-1.0 size=29041408kB time=07:30:02.53 bitrate=8810.6kbits/s speed=65.7x    frame=1622587 fps=3944 q=-1.0 size=29074176kB time=07:30:28.74 bitrate=8811.9kbits/s speed=65.7x    frame=1624198 fps=3943 q=-1.0 size=29107456kB time=07:30:55.59 bitrate=8813.3kbits/s speed=65.7x    frame=1626161 fps=3943 q=-1.0 size=29142784kB time=07:31:28.24 bitrate=8813.3kbits/s speed=65.7x    frame=1627900 fps=3943 q=-1.0 size=29175552kB time=07:31:57.24 bitrate=8813.8kbits/s speed=65.7x    frame=1629627 fps=3942 q=-1.0 size=29211136kB time=07:32:25.99 bitrate=8815.2kbits/s speed=65.7x    frame=1629845 fps=3942 q=-1.0 Lsize=29215907kB time=07:32:29.62 bitrate=8815.5kbits/s speed=65.7x    
video:28513223kB audio:648114kB subtitle:0kB other streams:0kB global headers:0kB muxing overhead: 0.187133%
